<?xml version="1.0" encoding="UTF-8" standalone="no"?>
<!-- Created with Inkscape (http://www.inkscape.org/) -->

<svg
   xmlns:dc="http://purl.org/dc/elements/1.1/"
   xmlns:cc="http://creativecommons.org/ns#"
   xmlns:rdf="http://www.w3.org/1999/02/22-rdf-syntax-ns#"
   xmlns:svg="http://www.w3.org/2000/svg"
   xmlns="http://www.w3.org/2000/svg"
   xmlns:sodipodi="http://sodipodi.sourceforge.net/DTD/sodipodi-0.dtd"
   xmlns:inkscape="http://www.inkscape.org/namespaces/inkscape"
   width="1920"
   height="1080"
   viewBox="0 0 507.99999 285.75001"
   version="1.1"
   id="svg8"
   inkscape:version="0.92.4 5da689c313, 2019-01-14"
   sodipodi:docname="opening.svg">
  <defs
     id="defs2" />
  <sodipodi:namedview
     id="base"
     pagecolor="#ffffff"
     bordercolor="#666666"
     borderopacity="1.0"
     inkscape:pageopacity="0.0"
     inkscape:pageshadow="2"
     inkscape:zoom="0.7"
     inkscape:cx="607.8443"
     inkscape:cy="461.97078"
     inkscape:document-units="mm"
     inkscape:current-layer="layer1"
     showgrid="true"
     inkscape:window-width="3200"
     inkscape:window-height="1688"
     inkscape:window-x="0"
     inkscape:window-y="38"
     inkscape:window-maximized="1"
     units="px">
    <inkscape:grid
       type="xygrid"
       id="grid8874" />
  </sodipodi:namedview>
  <metadata
     id="metadata5">
    <rdf:RDF>
      <cc:Work
         rdf:about="">
        <dc:format>image/svg+xml</dc:format>
        <dc:type
           rdf:resource="http://purl.org/dc/dcmitype/StillImage" />
        <dc:title />
      </cc:Work>
    </rdf:RDF>
  </metadata>
  <g
     inkscape:label="Layer 1"
     inkscape:groupmode="layer"
     id="layer1"
     transform="translate(0,-11.249965)">
    <g
       id="g4774"
       transform="matrix(0.35277777,0,0,-0.35277777,148.16667,132.20235)">
      <g
         id="g4926"
         transform="translate(1.3013325,-158.82211)">
        <g
           id="g4776">
          <path
             id="path4778"
             style="fill:#808285;fill-opacity:1;fill-rule:nonzero;stroke:none"
             d="m 298.7073,316.9553 c 0,-0.2103 -0.004,-0.3906 -0.0173,-0.5366 -0.0127,-0.1459 -0.0343,-0.2746 -0.0601,-0.3778 -0.0215,-0.1072 -0.0558,-0.1973 -0.0986,-0.2747 -0.0431,-0.0728 -0.1075,-0.1587 -0.2019,-0.2534 -0.0901,-0.0944 -0.2704,-0.2188 -0.5323,-0.3691 -0.2662,-0.146 -0.5882,-0.292 -0.9703,-0.4294 -0.3821,-0.133 -0.8158,-0.2489 -1.3051,-0.3391 -0.4895,-0.0901 -1.0219,-0.1374 -1.5928,-0.1374 -1.112,0 -2.1166,0.1717 -3.0138,0.5153 -0.8974,0.3433 -1.6616,0.8586 -2.2884,1.5412 -0.631,0.6826 -1.112,1.5327 -1.4468,2.5588 -0.3347,1.0216 -0.5023,2.2111 -0.5023,3.5677 0,1.3822 0.1846,2.6102 0.5539,3.6834 0.3691,1.0734 0.8844,1.9749 1.5455,2.7048 0.6613,0.7299 1.4556,1.2793 2.3828,1.6571 0.9229,0.3779 1.9448,0.5667 3.0611,0.5667 0.4507,0 0.8844,-0.0386 1.3051,-0.1157 0.4206,-0.0731 0.807,-0.1718 1.1633,-0.2965 0.3563,-0.1202 0.6741,-0.2616 0.9618,-0.4207 0.2835,-0.163 0.485,-0.3004 0.5967,-0.4121 0.1117,-0.116 0.1891,-0.2104 0.2319,-0.2832 0.0428,-0.0774 0.0774,-0.1718 0.0986,-0.2877 0.0258,-0.1202 0.0474,-0.2577 0.0601,-0.4164 0.0131,-0.1591 0.0173,-0.3521 0.0173,-0.5882 0,-0.2492 -0.009,-0.4638 -0.0258,-0.6398 -0.017,-0.176 -0.047,-0.3178 -0.0859,-0.4249 -0.0428,-0.1074 -0.0944,-0.1891 -0.1502,-0.2361 -0.0601,-0.0516 -0.1287,-0.0774 -0.2018,-0.0774 -0.1245,0 -0.2832,0.0731 -0.4765,0.2191 -0.1931,0.146 -0.4422,0.309 -0.747,0.4893 -0.305,0.1802 -0.6698,0.3435 -1.0947,0.4895 -0.4209,0.146 -0.9232,0.2188 -1.5114,0.2188 -0.6438,0 -1.2192,-0.1329 -1.7258,-0.3948 -0.5065,-0.2662 -0.936,-0.6398 -1.2923,-1.1291 -0.3563,-0.4938 -0.6267,-1.0862 -0.8113,-1.7818 -0.1848,-0.6911 -0.2749,-1.4769 -0.2749,-2.3482 0,-0.9533 0.0989,-1.7819 0.2962,-2.4818 0.1976,-0.6953 0.4768,-1.275 0.8416,-1.7257 0.3606,-0.4507 0.8028,-0.79 1.3181,-1.0089 0.5151,-0.2233 1.0948,-0.335 1.7388,-0.335 0.5836,0 1.0905,0.0689 1.5196,0.2061 0.425,0.1374 0.7901,0.2919 1.0948,0.4552 0.3092,0.1675 0.5581,0.3178 0.7557,0.4507 0.1973,0.1332 0.3478,0.2018 0.4592,0.2018 0.0816,0 0.1502,-0.0173 0.1976,-0.0516 0.0516,-0.0343 0.0944,-0.0986 0.1287,-0.2018 0.03,-0.0986 0.0558,-0.2404 0.0731,-0.4206 0.017,-0.1846 0.0258,-0.425 0.0258,-0.73 z m 12.0124,-1.159 c 0,-0.2447 -0.009,-0.4465 -0.0301,-0.614 -0.0215,-0.163 -0.0516,-0.2963 -0.0944,-0.3949 -0.043,-0.1032 -0.0946,-0.176 -0.159,-0.2234 -0.0601,-0.047 -0.1329,-0.0686 -0.2061,-0.0686 h -8.1657 c -0.2747,0 -0.5066,0.0817 -0.6954,0.2447 -0.189,0.1632 -0.2834,0.4294 -0.2834,0.7985 v 14.1933 c 0,0.3694 0.0944,0.6356 0.2834,0.7986 0.1888,0.1632 0.4207,0.2449 0.6954,0.2449 h 8.1272 c 0.0728,0 0.1417,-0.0216 0.2018,-0.0644 0.0559,-0.0431 0.1072,-0.1159 0.1503,-0.2191 0.0385,-0.1074 0.0728,-0.2404 0.0943,-0.4036 0.0216,-0.1673 0.0301,-0.3734 0.0301,-0.6268 0,-0.2361 -0.008,-0.4334 -0.0301,-0.6009 -0.0215,-0.1633 -0.0515,-0.2963 -0.0943,-0.3952 -0.0431,-0.1029 -0.0944,-0.176 -0.1503,-0.2231 -0.0601,-0.0473 -0.129,-0.0686 -0.2018,-0.0686 h -5.8088 v -3.9671 h 4.8943 c 0.0771,0 0.146,-0.0215 0.2061,-0.0686 0.0644,-0.0473 0.1159,-0.1159 0.1588,-0.2145 0.043,-0.0947 0.0731,-0.2234 0.0943,-0.3909 0.0216,-0.163 0.0301,-0.3606 0.0301,-0.5925 0,-0.2446 -0.008,-0.4464 -0.0301,-0.6052 -0.0212,-0.159 -0.0513,-0.2877 -0.0943,-0.3821 -0.0429,-0.0989 -0.0944,-0.1675 -0.1588,-0.2061 -0.0601,-0.043 -0.129,-0.0643 -0.2061,-0.0643 h -4.8943 v -4.5853 h 5.8473 c 0.0774,0 0.146,-0.0216 0.2061,-0.0686 0.0644,-0.0474 0.116,-0.1202 0.159,-0.2234 0.0428,-0.0986 0.0729,-0.2319 0.0944,-0.3949 0.0213,-0.1675 0.0301,-0.3693 0.0301,-0.6139 z m 16.3528,-0.1418 c 0,-0.193 -0.0343,-0.3648 -0.0987,-0.5193 -0.0689,-0.1502 -0.159,-0.2749 -0.2749,-0.3778 -0.1114,-0.0987 -0.2447,-0.1718 -0.3992,-0.2192 -0.159,-0.047 -0.3135,-0.0686 -0.4722,-0.0686 h -1.4125 c -0.2962,0 -0.5496,0.0301 -0.7642,0.0859 -0.2104,0.0601 -0.4079,0.1676 -0.5882,0.322 -0.1846,0.1545 -0.3563,0.3649 -0.5239,0.631 -0.1672,0.262 -0.3563,0.6055 -0.5666,1.0262 l -4.0399,7.6119 c -0.2362,0.4552 -0.4723,0.9445 -0.7169,1.4683 -0.2447,0.5238 -0.4595,1.0346 -0.6526,1.5284 h -0.0258 c 0.0343,-0.6054 0.0601,-1.2064 0.0774,-1.8076 0.017,-0.5967 0.0258,-1.2192 0.0258,-1.8544 v -8.5221 c 0,-0.0817 -0.0215,-0.159 -0.0689,-0.2276 -0.047,-0.0644 -0.1286,-0.1202 -0.2403,-0.1676 -0.1117,-0.047 -0.2662,-0.0813 -0.4595,-0.1071 -0.1931,-0.0258 -0.4422,-0.0389 -0.7427,-0.0389 -0.2962,0 -0.5409,0.0131 -0.7342,0.0389 -0.193,0.0258 -0.3433,0.0601 -0.4507,0.1071 -0.1117,0.0431 -0.1888,0.1032 -0.2276,0.1676 -0.0428,0.0686 -0.0644,0.1459 -0.0644,0.2276 v 14.6313 c 0,0.3949 0.116,0.6911 0.3479,0.8886 0.2276,0.1973 0.5108,0.2963 0.8501,0.2963 h 1.773 c 0.3178,0 0.5882,-0.0258 0.8071,-0.0817 0.2191,-0.0558 0.4121,-0.146 0.5839,-0.2704 0.1718,-0.1244 0.3348,-0.3005 0.4853,-0.5238 0.1502,-0.2189 0.3047,-0.4981 0.4635,-0.8244 l 3.164,-5.9547 c 0.1848,-0.3606 0.3651,-0.7169 0.5454,-1.0647 0.1803,-0.3478 0.3563,-0.6953 0.5196,-1.0431 0.1672,-0.3478 0.3305,-0.6914 0.4892,-1.0262 0.1633,-0.339 0.3178,-0.6741 0.468,-1.0088 h 0.0128 c -0.0255,0.5882 -0.0471,1.2021 -0.0601,1.8374 -0.0128,0.6398 -0.017,1.2495 -0.017,1.8289 v 7.6419 c 0,0.0817 0.0258,0.1591 0.0771,0.2276 0.0473,0.0644 0.1332,0.1245 0.2491,0.1761 0.1202,0.0516 0.2747,0.0859 0.468,0.1071 0.1931,0.0216 0.4422,0.0301 0.7427,0.0301 0.2877,0 0.5281,-0.009 0.7212,-0.0301 0.1933,-0.0212 0.3393,-0.0555 0.4464,-0.1071 0.1032,-0.0516 0.1806,-0.1117 0.2191,-0.1761 0.0428,-0.0685 0.0644,-0.1417 0.0644,-0.2276 z m 14.3651,13.7642 c 0,-0.2449 -0.008,-0.451 -0.03,-0.6267 -0.0216,-0.1718 -0.0516,-0.3093 -0.0944,-0.4122 -0.0431,-0.1074 -0.0947,-0.1848 -0.1591,-0.2319 -0.0601,-0.0516 -0.1329,-0.0773 -0.206,-0.0773 h -4.07 v -13.1245 c 0,-0.0813 -0.0255,-0.1587 -0.0814,-0.2273 -0.0558,-0.0646 -0.146,-0.1205 -0.2707,-0.1633 -0.1244,-0.0385 -0.2962,-0.0728 -0.5108,-0.0986 -0.2146,-0.0258 -0.4807,-0.0389 -0.7985,-0.0389 -0.3178,0 -0.5839,0.0131 -0.7985,0.0389 -0.2146,0.0258 -0.3864,0.0601 -0.5108,0.0986 -0.1248,0.0428 -0.2149,0.0987 -0.2705,0.1633 -0.0558,0.0686 -0.0816,0.146 -0.0816,0.2273 v 13.1245 h -4.07 c -0.0816,0 -0.1545,0.0257 -0.2146,0.0773 -0.0558,0.0471 -0.1074,0.1245 -0.1505,0.2319 -0.0385,0.1029 -0.0728,0.2404 -0.0944,0.4122 -0.0212,0.1757 -0.03,0.3818 -0.03,0.6267 0,0.2489 0.009,0.4635 0.03,0.6395 0.0216,0.176 0.0559,0.3178 0.0944,0.4209 0.0431,0.1072 0.0947,0.1803 0.1505,0.2274 0.0601,0.0473 0.133,0.0689 0.2146,0.0689 h 11.4628 c 0.0731,0 0.1417,-0.0216 0.206,-0.0689 0.0644,-0.0471 0.116,-0.1202 0.1591,-0.2274 0.0428,-0.1031 0.0728,-0.2449 0.0944,-0.4209 0.0215,-0.176 0.03,-0.3906 0.03,-0.6395 z m 11.5702,-13.6224 c 0,-0.2447 -0.009,-0.4465 -0.0301,-0.614 -0.0215,-0.163 -0.0516,-0.2963 -0.0944,-0.3949 -0.043,-0.1032 -0.0946,-0.176 -0.159,-0.2234 -0.0601,-0.047 -0.1329,-0.0686 -0.2061,-0.0686 h -8.1657 c -0.2747,0 -0.5066,0.0817 -0.6954,0.2447 -0.189,0.1632 -0.2834,0.4294 -0.2834,0.7985 v 14.1933 c 0,0.3694 0.0944,0.6356 0.2834,0.7986 0.1888,0.1632 0.4207,0.2449 0.6954,0.2449 h 8.1272 c 0.0728,0 0.1417,-0.0216 0.2018,-0.0644 0.0559,-0.0431 0.1072,-0.1159 0.1502,-0.2191 0.0386,-0.1074 0.0729,-0.2404 0.0944,-0.4036 0.0216,-0.1673 0.0301,-0.3734 0.0301,-0.6268 0,-0.2361 -0.009,-0.4334 -0.0301,-0.6009 -0.0215,-0.1633 -0.0515,-0.2963 -0.0944,-0.3952 -0.043,-0.1029 -0.0943,-0.176 -0.1502,-0.2231 -0.0601,-0.0473 -0.129,-0.0686 -0.2018,-0.0686 h -5.8088 v -3.9671 h 4.8943 c 0.0771,0 0.146,-0.0215 0.2061,-0.0686 0.0644,-0.0473 0.1159,-0.1159 0.1587,-0.2145 0.0431,-0.0947 0.0732,-0.2234 0.0944,-0.3909 0.0216,-0.163 0.0301,-0.3606 0.0301,-0.5925 0,-0.2446 -0.009,-0.4464 -0.0301,-0.6052 -0.0212,-0.159 -0.0513,-0.2877 -0.0944,-0.3821 -0.0428,-0.0989 -0.0943,-0.1675 -0.1587,-0.2061 -0.0601,-0.043 -0.129,-0.0643 -0.2061,-0.0643 h -4.8943 v -4.5853 h 5.8473 c 0.0774,0 0.146,-0.0216 0.2061,-0.0686 0.0644,-0.0474 0.116,-0.1202 0.159,-0.2234 0.0428,-0.0986 0.0729,-0.2319 0.0944,-0.3949 0.0213,-0.1675 0.0301,-0.3693 0.0301,-0.6139 z m 15.0134,-0.876 c 0,-0.0901 -0.0173,-0.1672 -0.0516,-0.2315 -0.0343,-0.0647 -0.1117,-0.116 -0.2361,-0.1591 -0.1287,-0.0385 -0.3093,-0.0686 -0.5539,-0.0859 -0.2446,-0.017 -0.5752,-0.0258 -0.9916,-0.0258 -0.352,0 -0.6312,0.009 -0.8416,0.0258 -0.2103,0.0173 -0.3778,0.0474 -0.498,0.0944 -0.1202,0.0474 -0.2061,0.1032 -0.2577,0.1761 -0.047,0.0731 -0.0901,0.159 -0.1244,0.2576 l -1.4684,3.6451 c -0.176,0.4122 -0.3475,0.7812 -0.515,1.099 -0.1676,0.322 -0.3563,0.5882 -0.5624,0.8028 -0.2061,0.2146 -0.4465,0.3736 -0.7169,0.4853 -0.2662,0.1071 -0.5797,0.163 -0.9318,0.163 h -1.0346 v -6.221 c 0,-0.0813 -0.0258,-0.1587 -0.0816,-0.223 -0.0559,-0.0689 -0.146,-0.1248 -0.2705,-0.1676 -0.1244,-0.0385 -0.2919,-0.0728 -0.5023,-0.0986 -0.206,-0.0258 -0.4765,-0.0389 -0.7985,-0.0389 -0.3177,0 -0.5839,0.0131 -0.7985,0.0389 -0.2146,0.0258 -0.3821,0.0601 -0.5066,0.0986 -0.1244,0.0428 -0.2148,0.0987 -0.2619,0.1633 -0.0516,0.0686 -0.0774,0.146 -0.0774,0.2273 v 14.7858 c 0,0.3694 0.0944,0.6356 0.2835,0.7986 0.1888,0.1632 0.4207,0.2449 0.6953,0.2449 h 4.216 c 0.4252,0 0.7815,-0.009 1.0562,-0.0258 0.2747,-0.0173 0.5281,-0.0386 0.7557,-0.0601 0.6525,-0.0944 1.2407,-0.2534 1.7643,-0.4808 0.5238,-0.2233 0.9703,-0.5196 1.3354,-0.8844 0.3648,-0.3651 0.644,-0.7943 0.8371,-1.2923 0.1933,-0.498 0.2877,-1.0689 0.2877,-1.7172 0,-0.5412 -0.0686,-1.0392 -0.2061,-1.4857 -0.1417,-0.4507 -0.3436,-0.8501 -0.614,-1.2021 -0.2661,-0.3518 -0.5967,-0.6568 -0.9918,-0.9145 -0.3949,-0.2616 -0.8456,-0.4677 -1.3479,-0.631 0.2446,-0.1159 0.4723,-0.2577 0.6868,-0.4249 0.2146,-0.1675 0.4165,-0.3736 0.6055,-0.614 0.1888,-0.2404 0.3691,-0.5108 0.5366,-0.82 0.1673,-0.3048 0.3305,-0.6526 0.4893,-1.0389 l 1.3782,-3.2157 c 0.1244,-0.3177 0.2103,-0.5496 0.2489,-0.6998 0.0431,-0.146 0.0646,-0.262 0.0646,-0.3479 z m -4.2761,11.0552 c 0,0.5366 -0.1202,0.9918 -0.3651,1.3566 -0.2446,0.3694 -0.6437,0.631 -1.1976,0.7815 -0.1675,0.0428 -0.3563,0.0729 -0.5712,0.0987 -0.2146,0.0258 -0.5108,0.0385 -0.8886,0.0385 h -1.4854 V 323.64 h 1.6872 c 0.4722,0 0.8801,0.0558 1.2322,0.1718 0.3563,0.1117 0.6483,0.2704 0.8844,0.4765 0.2361,0.2018 0.4122,0.4507 0.5281,0.7342 0.1159,0.2831 0.176,0.6009 0.176,0.953 z m 21.6635,3.4432 c 0,-0.2534 -0.008,-0.4637 -0.03,-0.6355 -0.0216,-0.1718 -0.0559,-0.309 -0.1029,-0.4122 -0.0474,-0.0986 -0.0989,-0.176 -0.1548,-0.2231 -0.0601,-0.0516 -0.1287,-0.0773 -0.2015,-0.0773 h -5.3323 v -4.379 h 5.0015 c 0.0774,0 0.146,-0.0216 0.2018,-0.0646 0.0601,-0.0386 0.1117,-0.1114 0.159,-0.2104 0.0471,-0.1029 0.0771,-0.2361 0.0987,-0.4033 0.0215,-0.1676 0.0343,-0.3779 0.0343,-0.6313 0,-0.2489 -0.0128,-0.4592 -0.0343,-0.6268 -0.0216,-0.1675 -0.0516,-0.3047 -0.0987,-0.4164 -0.0473,-0.1074 -0.0989,-0.1845 -0.159,-0.2318 -0.0558,-0.0474 -0.1244,-0.0686 -0.2018,-0.0686 h -5.0015 v -6.0665 c 0,-0.0901 -0.0258,-0.1717 -0.0774,-0.2403 -0.047,-0.0644 -0.1372,-0.1202 -0.2704,-0.1676 -0.1287,-0.047 -0.3005,-0.0813 -0.5065,-0.1071 -0.2104,-0.0258 -0.4808,-0.0389 -0.8071,-0.0389 -0.3177,0 -0.5839,0.0131 -0.7988,0.0389 -0.2146,0.0258 -0.3863,0.0601 -0.5108,0.1071 -0.1244,0.0431 -0.2146,0.1032 -0.2704,0.1676 -0.0558,0.0686 -0.0816,0.1502 -0.0816,0.2403 v 14.76 c 0,0.3694 0.0944,0.6356 0.2834,0.7986 0.1888,0.1632 0.4207,0.2449 0.6999,0.2449 h 7.672 c 0.0728,0 0.1414,-0.0216 0.2015,-0.0689 0.0559,-0.0471 0.1074,-0.1202 0.1548,-0.2274 0.047,-0.1031 0.0813,-0.2449 0.1029,-0.4209 0.0215,-0.176 0.03,-0.3906 0.03,-0.6395 z m 17.1213,-6.5945 c 0,-1.3479 -0.1675,-2.5543 -0.5023,-3.619 -0.3348,-1.0647 -0.8328,-1.9706 -1.4984,-2.7091 -0.661,-0.7427 -1.4811,-1.3096 -2.4557,-1.7002 -0.9788,-0.3906 -2.1078,-0.5839 -3.3916,-0.5839 -1.2665,0 -2.3698,0.1675 -3.31,0.498 -0.9445,0.3305 -1.7303,0.8331 -2.3613,1.5157 -0.6267,0.6783 -1.099,1.5412 -1.4125,2.5886 -0.3135,1.0477 -0.4722,2.2884 -0.4722,3.7225 0,1.3135 0.1675,2.4984 0.5023,3.5503 0.3347,1.0517 0.8328,1.9449 1.4984,2.6833 0.661,0.7385 1.4811,1.3051 2.4556,1.6957 0.9788,0.3952 2.1124,0.5925 3.4044,0.5925 1.2322,0 2.3185,-0.163 3.263,-0.4893 0.9402,-0.3263 1.7302,-0.8286 2.3612,-1.5112 0.6356,-0.6783 1.1121,-1.5327 1.4341,-2.5673 0.322,-1.0392 0.485,-2.2584 0.485,-3.6666 z m -3.4776,-0.1673 c 0,0.8544 -0.0686,1.6314 -0.2018,2.3313 -0.1329,0.6995 -0.3605,1.3008 -0.6826,1.7988 -0.322,0.4978 -0.7511,0.8844 -1.2877,1.1591 -0.5369,0.2704 -1.2065,0.4079 -2.0092,0.4079 -0.8116,0 -1.4899,-0.1548 -2.0308,-0.4595 -0.5454,-0.3047 -0.9876,-0.7169 -1.3223,-1.2279 -0.3348,-0.5109 -0.5709,-1.1075 -0.7084,-1.7901 -0.1375,-0.6869 -0.2061,-1.4083 -0.2061,-2.1725 0,-0.8887 0.0686,-1.6872 0.2018,-2.3956 0.133,-0.7083 0.3606,-1.3138 0.6784,-1.8204 0.3174,-0.5023 0.7426,-0.8844 1.2792,-1.1506 0.5366,-0.2619 1.2107,-0.3948 2.0223,-0.3948 0.8112,0 1.4896,0.1502 2.0304,0.4549 0.5454,0.3008 0.9876,0.713 1.3224,1.2323 0.335,0.5196 0.5712,1.1248 0.7084,1.8161 0.1374,0.6911 0.206,1.4295 0.206,2.211 z m 18.3493,-7.7366 c 0,-0.0901 -0.0173,-0.1672 -0.0516,-0.2315 -0.0343,-0.0647 -0.1117,-0.116 -0.2361,-0.1591 -0.1287,-0.0385 -0.3093,-0.0686 -0.5539,-0.0859 -0.2447,-0.017 -0.5752,-0.0258 -0.9916,-0.0258 -0.3521,0 -0.6313,0.009 -0.8416,0.0258 -0.2103,0.0173 -0.3779,0.0474 -0.498,0.0944 -0.1202,0.0474 -0.2061,0.1032 -0.2577,0.1761 -0.0471,0.0731 -0.0902,0.159 -0.1245,0.2576 l -1.4683,3.6451 c -0.176,0.4122 -0.3475,0.7812 -0.5151,1.099 -0.1675,0.322 -0.3563,0.5882 -0.5623,0.8028 -0.2061,0.2146 -0.4465,0.3736 -0.7169,0.4853 -0.2662,0.1071 -0.5797,0.163 -0.9318,0.163 h -1.0346 v -6.221 c 0,-0.0813 -0.0258,-0.1587 -0.0817,-0.223 -0.0558,-0.0689 -0.1459,-0.1248 -0.2704,-0.1676 -0.1244,-0.0385 -0.292,-0.0728 -0.5023,-0.0986 -0.2061,-0.0258 -0.4765,-0.0389 -0.7985,-0.0389 -0.3178,0 -0.5839,0.0131 -0.7985,0.0389 -0.2146,0.0258 -0.3821,0.0601 -0.5066,0.0986 -0.1244,0.0428 -0.2148,0.0987 -0.2619,0.1633 -0.0516,0.0686 -0.0774,0.146 -0.0774,0.2273 v 14.7858 c 0,0.3694 0.0944,0.6356 0.2835,0.7986 0.1888,0.1632 0.4206,0.2449 0.6953,0.2449 h 4.216 c 0.4252,0 0.7815,-0.009 1.0562,-0.0258 0.2747,-0.0173 0.5281,-0.0386 0.7557,-0.0601 0.6525,-0.0944 1.2407,-0.2534 1.7643,-0.4808 0.5238,-0.2233 0.9703,-0.5196 1.3354,-0.8844 0.3648,-0.3651 0.644,-0.7943 0.837,-1.2923 0.1934,-0.498 0.2878,-1.0689 0.2878,-1.7172 0,-0.5412 -0.0686,-1.0392 -0.2061,-1.4857 -0.1417,-0.4507 -0.3436,-0.8501 -0.614,-1.2021 -0.2662,-0.3518 -0.5967,-0.6568 -0.9918,-0.9145 -0.3949,-0.2616 -0.8456,-0.4677 -1.3479,-0.631 0.2446,-0.1159 0.4722,-0.2577 0.6868,-0.4249 0.2146,-0.1675 0.4164,-0.3736 0.6055,-0.614 0.1888,-0.2404 0.3691,-0.5108 0.5366,-0.82 0.1672,-0.3048 0.3305,-0.6526 0.4893,-1.0389 l 1.3782,-3.2157 c 0.1244,-0.3177 0.2103,-0.5496 0.2488,-0.6998 0.0431,-0.146 0.0647,-0.262 0.0647,-0.3479 z m -4.2761,11.0552 c 0,0.5366 -0.1202,0.9918 -0.3651,1.3566 -0.2446,0.3694 -0.6437,0.631 -1.1976,0.7815 -0.1676,0.0428 -0.3563,0.0729 -0.5712,0.0987 -0.2146,0.0258 -0.5108,0.0385 -0.8887,0.0385 h -1.4853 V 323.64 h 1.6872 c 0.4722,0 0.8801,0.0558 1.2322,0.1718 0.3563,0.1117 0.6483,0.2704 0.8844,0.4765 0.2361,0.2018 0.4121,0.4507 0.5281,0.7342 0.1159,0.2831 0.176,0.6009 0.176,0.953 z m 24.6002,-11.0552 c 0,-0.0901 -0.0173,-0.1672 -0.0516,-0.2315 -0.0343,-0.0647 -0.1117,-0.116 -0.2361,-0.1591 -0.1287,-0.0385 -0.3093,-0.0686 -0.5539,-0.0859 -0.2446,-0.017 -0.5752,-0.0258 -0.9916,-0.0258 -0.352,0 -0.6312,0.009 -0.8416,0.0258 -0.2103,0.0173 -0.3778,0.0474 -0.498,0.0944 -0.1202,0.0474 -0.2061,0.1032 -0.2577,0.1761 -0.047,0.0731 -0.0901,0.159 -0.1244,0.2576 l -1.4684,3.6451 c -0.176,0.4122 -0.3475,0.7812 -0.515,1.099 -0.1676,0.322 -0.3563,0.5882 -0.5624,0.8028 -0.2061,0.2146 -0.4465,0.3736 -0.7169,0.4853 -0.2662,0.1071 -0.5797,0.163 -0.9318,0.163 h -1.0346 v -6.221 c 0,-0.0813 -0.0258,-0.1587 -0.0816,-0.223 -0.0559,-0.0689 -0.146,-0.1248 -0.2705,-0.1676 -0.1244,-0.0385 -0.2919,-0.0728 -0.5023,-0.0986 -0.206,-0.0258 -0.4765,-0.0389 -0.7985,-0.0389 -0.3177,0 -0.5839,0.0131 -0.7985,0.0389 -0.2146,0.0258 -0.3821,0.0601 -0.5066,0.0986 -0.1244,0.0428 -0.2148,0.0987 -0.2619,0.1633 -0.0516,0.0686 -0.0774,0.146 -0.0774,0.2273 v 14.7858 c 0,0.3694 0.0944,0.6356 0.2835,0.7986 0.1888,0.1632 0.4207,0.2449 0.6953,0.2449 h 4.216 c 0.4252,0 0.7815,-0.009 1.0562,-0.0258 0.2747,-0.0173 0.5281,-0.0386 0.7557,-0.0601 0.6526,-0.0944 1.2407,-0.2534 1.7643,-0.4808 0.5238,-0.2233 0.9703,-0.5196 1.3354,-0.8844 0.3648,-0.3651 0.644,-0.7943 0.8371,-1.2923 0.1933,-0.498 0.2877,-1.0689 0.2877,-1.7172 0,-0.5412 -0.0686,-1.0392 -0.2061,-1.4857 -0.1417,-0.4507 -0.3435,-0.8501 -0.614,-1.2021 -0.2661,-0.3518 -0.5967,-0.6568 -0.9918,-0.9145 -0.3949,-0.2616 -0.8456,-0.4677 -1.3479,-0.631 0.2446,-0.1159 0.4723,-0.2577 0.6868,-0.4249 0.2146,-0.1675 0.4165,-0.3736 0.6055,-0.614 0.1888,-0.2404 0.3691,-0.5108 0.5366,-0.82 0.1673,-0.3048 0.3305,-0.6526 0.4893,-1.0389 l 1.3782,-3.2157 c 0.1244,-0.3177 0.2103,-0.5496 0.2489,-0.6998 0.0431,-0.146 0.0646,-0.262 0.0646,-0.3479 z m -4.2761,11.0552 c 0,0.5366 -0.1202,0.9918 -0.3651,1.3566 -0.2446,0.3694 -0.6437,0.631 -1.1976,0.7815 -0.1675,0.0428 -0.3563,0.0729 -0.5712,0.0987 -0.2146,0.0258 -0.5108,0.0385 -0.8886,0.0385 h -1.4854 V 323.64 h 1.6872 c 0.4722,0 0.8801,0.0558 1.2322,0.1718 0.3563,0.1117 0.6483,0.2704 0.8844,0.4765 0.2361,0.2018 0.4122,0.4507 0.5281,0.7342 0.1159,0.2831 0.176,0.6009 0.176,0.953 z m 16.3316,-10.1792 c 0,-0.2447 -0.009,-0.4465 -0.0301,-0.614 -0.0215,-0.163 -0.0516,-0.2963 -0.0944,-0.3949 -0.0431,-0.1032 -0.0947,-0.176 -0.159,-0.2234 -0.0601,-0.047 -0.1329,-0.0686 -0.2061,-0.0686 h -8.1657 c -0.2747,0 -0.5066,0.0817 -0.6954,0.2447 -0.1891,0.1632 -0.2834,0.4294 -0.2834,0.7985 v 14.1933 c 0,0.3694 0.0943,0.6356 0.2834,0.7986 0.1888,0.1632 0.4207,0.2449 0.6954,0.2449 h 8.1272 c 0.0728,0 0.1417,-0.0216 0.2018,-0.0644 0.0558,-0.0431 0.1071,-0.1159 0.1502,-0.2191 0.0386,-0.1074 0.0729,-0.2404 0.0944,-0.4036 0.0216,-0.1673 0.0301,-0.3734 0.0301,-0.6268 0,-0.2361 -0.009,-0.4334 -0.0301,-0.6009 -0.0215,-0.1633 -0.0516,-0.2963 -0.0944,-0.3952 -0.0431,-0.1029 -0.0944,-0.176 -0.1502,-0.2231 -0.0601,-0.0473 -0.129,-0.0686 -0.2018,-0.0686 h -5.8088 v -3.9671 h 4.8943 c 0.0771,0 0.146,-0.0215 0.2061,-0.0686 0.0643,-0.0473 0.1159,-0.1159 0.1587,-0.2145 0.0431,-0.0947 0.0732,-0.2234 0.0944,-0.3909 0.0216,-0.163 0.0301,-0.3606 0.0301,-0.5925 0,-0.2446 -0.009,-0.4464 -0.0301,-0.6052 -0.0212,-0.159 -0.0513,-0.2877 -0.0944,-0.3821 -0.0428,-0.0989 -0.0944,-0.1675 -0.1587,-0.2061 -0.0601,-0.043 -0.129,-0.0643 -0.2061,-0.0643 h -4.8943 v -4.5853 h 5.8473 c 0.0774,0 0.146,-0.0216 0.2061,-0.0686 0.0643,-0.0474 0.1159,-0.1202 0.159,-0.2234 0.0428,-0.0986 0.0729,-0.2319 0.0944,-0.3949 0.0213,-0.1675 0.0301,-0.3693 0.0301,-0.6139 z m 13.8112,1.159 c 0,-0.2103 -0.004,-0.3906 -0.0173,-0.5366 -0.0127,-0.1459 -0.0343,-0.2746 -0.0601,-0.3778 -0.0215,-0.1072 -0.0558,-0.1973 -0.0986,-0.2747 -0.0431,-0.0728 -0.1075,-0.1587 -0.2018,-0.2534 -0.0902,-0.0944 -0.2705,-0.2188 -0.5324,-0.3691 -0.2662,-0.146 -0.5882,-0.292 -0.9703,-0.4294 -0.3821,-0.133 -0.8158,-0.2489 -1.3051,-0.3391 -0.4895,-0.0901 -1.0219,-0.1374 -1.5928,-0.1374 -1.112,0 -2.1166,0.1717 -3.0137,0.5153 -0.8975,0.3433 -1.6617,0.8586 -2.2885,1.5412 -0.6309,0.6826 -1.112,1.5327 -1.4468,2.5588 -0.3347,1.0216 -0.5023,2.2111 -0.5023,3.5677 0,1.3822 0.1846,2.6102 0.5539,3.6834 0.3691,1.0734 0.8844,1.9749 1.5455,2.7048 0.6613,0.7299 1.4556,1.2793 2.3828,1.6571 0.9229,0.3779 1.9448,0.5667 3.0611,0.5667 0.4507,0 0.8844,-0.0386 1.3051,-0.1157 0.4206,-0.0731 0.807,-0.1718 1.1633,-0.2965 0.3563,-0.1202 0.6741,-0.2616 0.9618,-0.4207 0.2835,-0.163 0.485,-0.3004 0.5967,-0.4121 0.1117,-0.116 0.1891,-0.2104 0.2319,-0.2832 0.0428,-0.0774 0.0774,-0.1718 0.0986,-0.2877 0.0258,-0.1202 0.0474,-0.2577 0.0601,-0.4164 0.0131,-0.1591 0.0173,-0.3521 0.0173,-0.5882 0,-0.2492 -0.008,-0.4638 -0.0258,-0.6398 -0.017,-0.176 -0.047,-0.3178 -0.0859,-0.4249 -0.0428,-0.1074 -0.0944,-0.1891 -0.1502,-0.2361 -0.0601,-0.0516 -0.1287,-0.0774 -0.2018,-0.0774 -0.1245,0 -0.2832,0.0731 -0.4765,0.2191 -0.1931,0.146 -0.4422,0.309 -0.747,0.4893 -0.305,0.1802 -0.6698,0.3435 -1.0947,0.4895 -0.4209,0.146 -0.9232,0.2188 -1.5114,0.2188 -0.6438,0 -1.2192,-0.1329 -1.7258,-0.3948 -0.5065,-0.2662 -0.936,-0.6398 -1.2923,-1.1291 -0.3563,-0.4938 -0.6267,-1.0862 -0.8113,-1.7818 -0.1848,-0.6911 -0.2749,-1.4769 -0.2749,-2.3482 0,-0.9533 0.0989,-1.7819 0.2962,-2.4818 0.1976,-0.6953 0.4768,-1.275 0.8416,-1.7257 0.3606,-0.4507 0.8028,-0.79 1.3181,-1.0089 0.5151,-0.2233 1.0948,-0.335 1.7388,-0.335 0.5836,0 1.0905,0.0689 1.5196,0.2061 0.425,0.1374 0.7901,0.2919 1.0948,0.4552 0.3092,0.1675 0.5581,0.3178 0.7557,0.4507 0.1973,0.1332 0.3478,0.2018 0.4592,0.2018 0.0817,0 0.1502,-0.0173 0.1976,-0.0516 0.0516,-0.0343 0.0944,-0.0986 0.1287,-0.2018 0.03,-0.0986 0.0558,-0.2404 0.0731,-0.4206 0.017,-0.1846 0.0258,-0.425 0.0258,-0.73 z m 16.8208,5.8689 c 0,-1.3479 -0.1675,-2.5543 -0.5023,-3.619 -0.3348,-1.0647 -0.8328,-1.9706 -1.4984,-2.7091 -0.661,-0.7427 -1.4811,-1.3096 -2.4556,-1.7002 -0.9789,-0.3906 -2.1079,-0.5839 -3.3917,-0.5839 -1.2665,0 -2.3698,0.1675 -3.31,0.498 -0.9445,0.3305 -1.7303,0.8331 -2.3613,1.5157 -0.6267,0.6783 -1.099,1.5412 -1.4125,2.5886 -0.3135,1.0477 -0.4722,2.2884 -0.4722,3.7225 0,1.3135 0.1675,2.4984 0.5023,3.5503 0.3347,1.0517 0.8328,1.9449 1.4984,2.6833 0.661,0.7385 1.4811,1.3051 2.4556,1.6957 0.9788,0.3952 2.1124,0.5925 3.4044,0.5925 1.2322,0 2.3185,-0.163 3.263,-0.4893 0.9402,-0.3263 1.7302,-0.8286 2.3612,-1.5112 0.6356,-0.6783 1.1121,-1.5327 1.4341,-2.5673 0.322,-1.0392 0.485,-2.2584 0.485,-3.6666 z m -3.4775,-0.1673 c 0,0.8544 -0.0686,1.6314 -0.2019,2.3313 -0.1329,0.6995 -0.3605,1.3008 -0.6826,1.7988 -0.322,0.4978 -0.7511,0.8844 -1.2877,1.1591 -0.5369,0.2704 -1.2065,0.4079 -2.0092,0.4079 -0.8116,0 -1.4899,-0.1548 -2.0308,-0.4595 -0.5454,-0.3047 -0.9876,-0.7169 -1.3223,-1.2279 -0.3348,-0.5109 -0.5709,-1.1075 -0.7084,-1.7901 -0.1375,-0.6869 -0.2061,-1.4083 -0.2061,-2.1725 0,-0.8887 0.0686,-1.6872 0.2018,-2.3956 0.133,-0.7083 0.3606,-1.3138 0.6784,-1.8204 0.3174,-0.5023 0.7426,-0.8844 1.2792,-1.1506 0.5366,-0.2619 1.2107,-0.3948 2.0223,-0.3948 0.8113,0 1.4896,0.1502 2.0304,0.4549 0.5454,0.3008 0.9876,0.713 1.3224,1.2323 0.3351,0.5196 0.5712,1.1248 0.7084,1.8161 0.1375,0.6911 0.2061,1.4295 0.2061,2.211"
             inkscape:connector-curvature="0" />
          <path
             id="path4780"
             style="fill:#808285;fill-opacity:1;fill-rule:nonzero;stroke:none"
             d="m 496.2637,328.2423 c 0,-0.2403 -0.008,-0.4507 -0.0301,-0.6267 -0.0215,-0.176 -0.0516,-0.3178 -0.0901,-0.421 -0.0388,-0.1071 -0.0816,-0.1802 -0.1375,-0.2188 -0.0558,-0.0428 -0.1202,-0.0643 -0.193,-0.0643 -0.1117,0 -0.2877,0.0771 -0.5281,0.2273 -0.2449,0.1505 -0.5669,0.3178 -0.9703,0.4938 -0.4037,0.176 -0.8802,0.3436 -1.4383,0.4938 -0.5582,0.1502 -1.2064,0.2276 -1.9449,0.2276 -0.7854,0 -1.4984,-0.1375 -2.1336,-0.4079 -0.6398,-0.2747 -1.1849,-0.6613 -1.6359,-1.1591 -0.4507,-0.5023 -0.7985,-1.0993 -1.0431,-1.8034 -0.2447,-0.6996 -0.3648,-1.4723 -0.3648,-2.3224 0,-0.9318 0.1244,-1.7518 0.369,-2.4644 0.2492,-0.7084 0.5967,-1.3009 1.0389,-1.7816 0.4468,-0.4765 0.9834,-0.8374 1.6058,-1.082 0.6268,-0.2446 1.3179,-0.3648 2.0693,-0.3648 0.3691,0 0.7342,0.0428 1.0948,0.1244 0.3648,0.0859 0.6999,0.2146 1.0088,0.3821 v 3.7953 h -3.0781 c -0.1502,0 -0.2662,0.0944 -0.3521,0.2832 -0.0816,0.1891 -0.1244,0.5066 -0.1244,0.9618 0,0.2319 0.008,0.4292 0.03,0.5882 0.0216,0.1587 0.0559,0.2874 0.0944,0.3821 0.0428,0.0987 0.0944,0.1673 0.1503,0.2146 0.0601,0.0473 0.1287,0.0686 0.2018,0.0686 h 5.4952 c 0.1333,0 0.2534,-0.0213 0.3563,-0.0686 0.1075,-0.0473 0.1976,-0.1159 0.2793,-0.2103 0.0771,-0.0902 0.1414,-0.2019 0.1802,-0.3306 0.0428,-0.1332 0.0644,-0.2834 0.0644,-0.4509 v -6.4914 c 0,-0.2531 -0.0428,-0.4722 -0.1332,-0.661 -0.0856,-0.1888 -0.2662,-0.3393 -0.5409,-0.4465 -0.2704,-0.1117 -0.6097,-0.2234 -1.0131,-0.3435 -0.4036,-0.116 -0.8201,-0.2189 -1.2538,-0.3005 -0.4291,-0.0859 -0.8671,-0.1503 -1.3093,-0.1888 -0.4379,-0.0431 -0.8801,-0.0646 -1.3266,-0.0646 -1.3008,0 -2.4644,0.189 -3.4945,0.5624 -1.0262,0.3736 -1.8978,0.9144 -2.6105,1.6228 -0.7126,0.7084 -1.258,1.5715 -1.6356,2.5931 -0.3778,1.0219 -0.5669,2.1768 -0.5669,3.4691 0,1.3351 0.2018,2.533 0.6055,3.5935 0.3991,1.0646 0.9703,1.9661 1.7087,2.7087 0.7384,0.743 1.6271,1.3096 2.6745,1.7045 1.0434,0.3952 2.2068,0.5925 3.4863,0.5925 0.7084,0 1.3479,-0.0471 1.9276,-0.146 0.5751,-0.0987 1.082,-0.2146 1.5154,-0.3563 0.4294,-0.1372 0.79,-0.2875 1.0735,-0.4465 0.2874,-0.163 0.485,-0.3005 0.5967,-0.4207 0.1159,-0.1159 0.1975,-0.2834 0.2446,-0.498 0.0516,-0.2103 0.0774,-0.5281 0.0774,-0.9488 z m 16.7734,-12.5878 c 0,-0.193 -0.0343,-0.3648 -0.0986,-0.5193 -0.0689,-0.1502 -0.159,-0.2749 -0.275,-0.3778 -0.1114,-0.0987 -0.2446,-0.1718 -0.3991,-0.2192 -0.159,-0.047 -0.3135,-0.0686 -0.4722,-0.0686 h -1.4125 c -0.2963,0 -0.5497,0.0301 -0.7643,0.0859 -0.2103,0.0601 -0.4079,0.1676 -0.5882,0.322 -0.1845,0.1545 -0.3563,0.3649 -0.5238,0.631 -0.1672,0.262 -0.3563,0.6055 -0.5666,1.0262 l -4.04,7.6119 c -0.2361,0.4552 -0.4722,0.9445 -0.7169,1.4683 -0.2446,0.5238 -0.4595,1.0346 -0.6525,1.5284 h -0.0258 c 0.0343,-0.6054 0.0601,-1.2064 0.0774,-1.8076 0.017,-0.5967 0.0258,-1.2192 0.0258,-1.8544 v -8.5221 c 0,-0.0817 -0.0216,-0.159 -0.0689,-0.2276 -0.047,-0.0644 -0.1287,-0.1202 -0.2404,-0.1676 -0.1117,-0.047 -0.2661,-0.0813 -0.4595,-0.1071 -0.193,-0.0258 -0.4422,-0.0389 -0.7426,-0.0389 -0.2963,0 -0.5409,0.0131 -0.7342,0.0389 -0.1931,0.0258 -0.3433,0.0601 -0.4507,0.1071 -0.1117,0.0431 -0.1888,0.1032 -0.2276,0.1676 -0.0429,0.0686 -0.0644,0.1459 -0.0644,0.2276 v 14.6313 c 0,0.3949 0.1159,0.6911 0.3478,0.8886 0.2276,0.1973 0.5108,0.2963 0.8501,0.2963 h 1.7731 c 0.3178,0 0.5882,-0.0258 0.807,-0.0817 0.2191,-0.0558 0.4122,-0.146 0.584,-0.2704 0.1717,-0.1244 0.3347,-0.3005 0.4852,-0.5238 0.1503,-0.2189 0.3048,-0.4981 0.4635,-0.8244 l 3.164,-5.9547 c 0.1849,-0.3606 0.3651,-0.7169 0.5454,-1.0647 0.1803,-0.3478 0.3563,-0.6953 0.5196,-1.0431 0.1673,-0.3478 0.3305,-0.6914 0.4893,-1.0262 0.1633,-0.339 0.3177,-0.6741 0.468,-1.0088 h 0.0127 c -0.0255,0.5882 -0.047,1.2021 -0.0601,1.8374 -0.0127,0.6398 -0.017,1.2495 -0.017,1.8289 v 7.6419 c 0,0.0817 0.0258,0.1591 0.0771,0.2276 0.0474,0.0644 0.1333,0.1245 0.2492,0.1761 0.1202,0.0516 0.2747,0.0859 0.468,0.1071 0.193,0.0216 0.4422,0.0301 0.7427,0.0301 0.2877,0 0.5281,-0.009 0.7211,-0.0301 0.1933,-0.0212 0.3393,-0.0555 0.4465,-0.1071 0.1032,-0.0516 0.1805,-0.1117 0.2191,-0.1761 0.0428,-0.0685 0.0643,-0.1417 0.0643,-0.2276 z m 6.8692,-0.7084 c 0,-0.0813 -0.0258,-0.1587 -0.0816,-0.2273 -0.0558,-0.0646 -0.146,-0.1205 -0.2704,-0.1633 -0.1245,-0.0385 -0.2963,-0.0728 -0.5023,-0.0986 -0.2104,-0.0258 -0.4808,-0.0389 -0.8071,-0.0389 -0.3177,0 -0.5839,0.0131 -0.7988,0.0389 -0.2145,0.0258 -0.3863,0.0601 -0.5108,0.0986 -0.1244,0.0428 -0.2145,0.0987 -0.2704,0.1633 -0.0558,0.0686 -0.0816,0.146 -0.0816,0.2273 v 15.3783 c 0,0.0816 0.0258,0.159 0.0816,0.2276 0.0559,0.0643 0.146,0.1202 0.2789,0.1633 0.129,0.0428 0.2963,0.0728 0.5069,0.0986 0.2103,0.0258 0.4765,0.0386 0.7942,0.0386 0.3263,0 0.5967,-0.0128 0.8071,-0.0386 0.206,-0.0258 0.3778,-0.0558 0.5023,-0.0986 0.1244,-0.0431 0.2146,-0.099 0.2704,-0.1633 0.0558,-0.0686 0.0816,-0.146 0.0816,-0.2276 z m 14.3652,14.4726 c 0,-0.2449 -0.008,-0.451 -0.0301,-0.6267 -0.0215,-0.1718 -0.0516,-0.3093 -0.0944,-0.4122 -0.0431,-0.1074 -0.0947,-0.1848 -0.159,-0.2319 -0.0601,-0.0516 -0.1329,-0.0773 -0.2061,-0.0773 h -4.07 v -13.1245 c 0,-0.0813 -0.0255,-0.1587 -0.0813,-0.2273 -0.0559,-0.0646 -0.146,-0.1205 -0.2707,-0.1633 -0.1245,-0.0385 -0.2962,-0.0728 -0.5108,-0.0986 -0.2146,-0.0258 -0.4808,-0.0389 -0.7985,-0.0389 -0.3178,0 -0.584,0.0131 -0.7986,0.0389 -0.2146,0.0258 -0.3863,0.0601 -0.5108,0.0986 -0.1247,0.0428 -0.2148,0.0987 -0.2704,0.1633 -0.0558,0.0686 -0.0816,0.146 -0.0816,0.2273 v 13.1245 h -4.07 c -0.0817,0 -0.1545,0.0257 -0.2146,0.0773 -0.0558,0.0471 -0.1074,0.1245 -0.1505,0.2319 -0.0386,0.1029 -0.0729,0.2404 -0.0944,0.4122 -0.0213,0.1757 -0.0301,0.3818 -0.0301,0.6267 0,0.2489 0.009,0.4635 0.0301,0.6395 0.0215,0.176 0.0558,0.3178 0.0944,0.4209 0.0431,0.1072 0.0947,0.1803 0.1505,0.2274 0.0601,0.0473 0.1329,0.0689 0.2146,0.0689 h 11.4627 c 0.0732,0 0.1418,-0.0216 0.2061,-0.0689 0.0643,-0.0471 0.1159,-0.1202 0.159,-0.2274 0.0428,-0.1031 0.0729,-0.2449 0.0944,-0.4209 0.0216,-0.176 0.0301,-0.3906 0.0301,-0.6395 z m 5.2591,-14.4726 c 0,-0.0813 -0.0258,-0.1587 -0.0817,-0.2273 -0.0558,-0.0646 -0.1459,-0.1205 -0.2704,-0.1633 -0.1244,-0.0385 -0.2962,-0.0728 -0.5023,-0.0986 -0.2103,-0.0258 -0.4807,-0.0389 -0.807,-0.0389 -0.3178,0 -0.5839,0.0131 -0.7988,0.0389 -0.2146,0.0258 -0.3864,0.0601 -0.5108,0.0986 -0.1245,0.0428 -0.2146,0.0987 -0.2704,0.1633 -0.0559,0.0686 -0.0817,0.146 -0.0817,0.2273 v 15.3783 c 0,0.0816 0.0258,0.159 0.0817,0.2276 0.0558,0.0643 0.1459,0.1202 0.2789,0.1633 0.129,0.0428 0.2962,0.0728 0.5068,0.0986 0.2104,0.0258 0.4765,0.0386 0.7943,0.0386 0.3263,0 0.5967,-0.0128 0.807,-0.0386 0.2061,-0.0258 0.3779,-0.0558 0.5023,-0.0986 0.1245,-0.0431 0.2146,-0.099 0.2704,-0.1633 0.0559,-0.0686 0.0817,-0.146 0.0817,-0.2276 z m 18.1774,7.8781 c 0,-1.3479 -0.1675,-2.5543 -0.5023,-3.619 -0.3347,-1.0647 -0.8328,-1.9706 -1.4984,-2.7091 -0.661,-0.7427 -1.4811,-1.3096 -2.4556,-1.7002 -0.9788,-0.3906 -2.1079,-0.5839 -3.3917,-0.5839 -1.2665,0 -2.3697,0.1675 -3.31,0.498 -0.9445,0.3305 -1.7303,0.8331 -2.3612,1.5157 -0.6268,0.6783 -1.099,1.5412 -1.4125,2.5886 -0.3136,1.0477 -0.4723,2.2884 -0.4723,3.7225 0,1.3135 0.1675,2.4984 0.5023,3.5503 0.3348,1.0517 0.8328,1.9449 1.4984,2.6833 0.661,0.7385 1.4811,1.3051 2.4556,1.6957 0.9788,0.3952 2.1124,0.5925 3.4045,0.5925 1.2322,0 2.3184,-0.163 3.2629,-0.4893 0.9403,-0.3263 1.7303,-0.8286 2.3613,-1.5112 0.6355,-0.6783 1.112,-1.5327 1.434,-2.5673 0.322,-1.0392 0.485,-2.2584 0.485,-3.6666 z m -3.4775,-0.1673 c 0,0.8544 -0.0686,1.6314 -0.2018,2.3313 -0.133,0.6995 -0.3606,1.3008 -0.6826,1.7988 -0.322,0.4978 -0.7512,0.8844 -1.2878,1.1591 -0.5369,0.2704 -1.2064,0.4079 -2.0092,0.4079 -0.8116,0 -1.4899,-0.1548 -2.0307,-0.4595 -0.5454,-0.3047 -0.9876,-0.7169 -1.3224,-1.2279 -0.3348,-0.5109 -0.5709,-1.1075 -0.7084,-1.7901 -0.1375,-0.6869 -0.2061,-1.4083 -0.2061,-2.1725 0,-0.8887 0.0686,-1.6872 0.2019,-2.3956 0.1329,-0.7083 0.3605,-1.3138 0.6783,-1.8204 0.3175,-0.5023 0.7427,-0.8844 1.2793,-1.1506 0.5366,-0.2619 1.2107,-0.3948 2.0222,-0.3948 0.8113,0 1.4896,0.1502 2.0305,0.4549 0.5454,0.3008 0.9876,0.713 1.3223,1.2323 0.3351,0.5196 0.5712,1.1248 0.7084,1.8161 0.1375,0.6911 0.2061,1.4295 0.2061,2.211 z m 19.6886,-7.0024 c 0,-0.193 -0.0343,-0.3648 -0.0987,-0.5193 -0.0688,-0.1502 -0.159,-0.2749 -0.2749,-0.3778 -0.1114,-0.0987 -0.2446,-0.1718 -0.3991,-0.2192 -0.1591,-0.047 -0.3135,-0.0686 -0.4723,-0.0686 h -1.4125 c -0.2962,0 -0.5496,0.0301 -0.7642,0.0859 -0.2103,0.0601 -0.4079,0.1676 -0.5882,0.322 -0.1845,0.1545 -0.3563,0.3649 -0.5238,0.631 -0.1673,0.262 -0.3564,0.6055 -0.5667,1.0262 l -4.0399,7.6119 c -0.2362,0.4552 -0.4723,0.9445 -0.7169,1.4683 -0.2446,0.5238 -0.4595,1.0346 -0.6525,1.5284 h -0.0258 c 0.0343,-0.6054 0.0601,-1.2064 0.0773,-1.8076 0.0171,-0.5967 0.0258,-1.2192 0.0258,-1.8544 v -8.5221 c 0,-0.0817 -0.0215,-0.159 -0.0688,-0.2276 -0.0471,-0.0644 -0.1287,-0.1202 -0.2404,-0.1676 -0.1117,-0.047 -0.2662,-0.0813 -0.4595,-0.1071 -0.1931,-0.0258 -0.4422,-0.0389 -0.7427,-0.0389 -0.2962,0 -0.5408,0.0131 -0.7342,0.0389 -0.193,0.0258 -0.3432,0.0601 -0.4507,0.1071 -0.1117,0.0431 -0.1888,0.1032 -0.2276,0.1676 -0.0428,0.0686 -0.0643,0.1459 -0.0643,0.2276 v 14.6313 c 0,0.3949 0.1159,0.6911 0.3478,0.8886 0.2276,0.1973 0.5108,0.2963 0.8501,0.2963 h 1.773 c 0.3178,0 0.5882,-0.0258 0.8071,-0.0817 0.2191,-0.0558 0.4121,-0.146 0.5839,-0.2704 0.1718,-0.1244 0.3348,-0.3005 0.4853,-0.5238 0.1502,-0.2189 0.3047,-0.4981 0.4635,-0.8244 l 3.164,-5.9547 c 0.1848,-0.3606 0.3651,-0.7169 0.5454,-1.0647 0.1803,-0.3478 0.3563,-0.6953 0.5196,-1.0431 0.1672,-0.3478 0.3305,-0.6914 0.4892,-1.0262 0.1633,-0.339 0.3178,-0.6741 0.468,-1.0088 h 0.0128 c -0.0255,0.5882 -0.0471,1.2021 -0.0601,1.8374 -0.0128,0.6398 -0.017,1.2495 -0.017,1.8289 v 7.6419 c 0,0.0817 0.0258,0.1591 0.0771,0.2276 0.0473,0.0644 0.1332,0.1245 0.2492,0.1761 0.1201,0.0516 0.2746,0.0859 0.468,0.1071 0.193,0.0216 0.4422,0.0301 0.7426,0.0301 0.2877,0 0.5281,-0.009 0.7212,-0.0301 0.1933,-0.0212 0.3393,-0.0555 0.4464,-0.1071 0.1032,-0.0516 0.1806,-0.1117 0.2191,-0.1761 0.0428,-0.0685 0.0644,-0.1417 0.0644,-0.2276 z M 300.7809,284.2843 c 0.0986,-0.3004 0.1632,-0.5411 0.1887,-0.7171 0.0258,-0.1761 -0.009,-0.309 -0.0986,-0.3991 -0.0944,-0.0859 -0.2577,-0.1418 -0.4938,-0.1633 -0.2319,-0.0213 -0.5581,-0.0301 -0.9658,-0.0301 -0.4294,0 -0.7642,0.005 -1.0003,0.0173 -0.2404,0.0128 -0.421,0.0386 -0.5497,0.0774 -0.1244,0.0386 -0.2103,0.0902 -0.2619,0.1588 -0.0516,0.0643 -0.0944,0.1544 -0.1244,0.2619 l -1.069,3.2714 h -6.1392 l -1.0262,-3.1813 c -0.0343,-0.1202 -0.0774,-0.2191 -0.1332,-0.2962 -0.0513,-0.0816 -0.1415,-0.1417 -0.2616,-0.1891 -0.1205,-0.047 -0.292,-0.0771 -0.5154,-0.0944 -0.2234,-0.017 -0.515,-0.0258 -0.8759,-0.0258 -0.3863,0 -0.6868,0.0131 -0.9057,0.0389 -0.2191,0.0258 -0.3693,0.0859 -0.4509,0.1803 -0.0859,0.0986 -0.116,0.2361 -0.0902,0.4121 0.0258,0.176 0.0902,0.4079 0.1891,0.7041 l 5.0145,14.4465 c 0.047,0.1418 0.1071,0.2577 0.176,0.3436 0.0643,0.0901 0.1715,0.1545 0.3175,0.2018 0.1505,0.0471 0.352,0.0771 0.614,0.0902 0.2576,0.0127 0.6012,0.017 1.0304,0.017 0.4938,0 0.8886,-0.004 1.1806,-0.017 0.2962,-0.0131 0.5238,-0.0431 0.6868,-0.0902 0.1633,-0.0473 0.2792,-0.1159 0.3521,-0.2061 0.0689,-0.0944 0.1332,-0.2191 0.1803,-0.3778 z m -7.4702,11.9523 h -0.013 l -2.2666,-6.925 h 4.5677 z m 23.1704,-12.0254 c 0,-0.193 -0.0343,-0.3648 -0.0986,-0.5193 -0.0689,-0.1502 -0.1591,-0.275 -0.275,-0.3779 -0.1114,-0.0986 -0.2446,-0.1717 -0.3991,-0.2191 -0.159,-0.047 -0.3135,-0.0686 -0.4723,-0.0686 h -1.4125 c -0.2962,0 -0.5496,0.0301 -0.7642,0.0859 -0.2103,0.0601 -0.4079,0.1675 -0.5882,0.322 -0.1845,0.1545 -0.3563,0.3649 -0.5238,0.631 -0.1673,0.2619 -0.3563,0.6055 -0.5667,1.0262 l -4.0399,7.6118 c -0.2361,0.4553 -0.4723,0.9445 -0.7169,1.4684 -0.2446,0.5238 -0.4595,1.0346 -0.6525,1.5284 h -0.0258 c 0.0343,-0.6054 0.0601,-1.2064 0.0774,-1.8076 0.017,-0.5967 0.0258,-1.2192 0.0258,-1.8544 v -8.5221 c 0,-0.0817 -0.0216,-0.159 -0.0689,-0.2276 -0.0471,-0.0644 -0.1287,-0.1202 -0.2404,-0.1676 -0.1117,-0.047 -0.2662,-0.0813 -0.4595,-0.1071 -0.193,-0.0258 -0.4422,-0.0389 -0.7427,-0.0389 -0.2962,0 -0.5408,0.0131 -0.7342,0.0389 -0.193,0.0258 -0.3432,0.0601 -0.4507,0.1071 -0.1116,0.0431 -0.1887,0.1032 -0.2276,0.1676 -0.0428,0.0686 -0.0643,0.1459 -0.0643,0.2276 v 14.6313 c 0,0.3948 0.1159,0.6911 0.3478,0.8886 0.2276,0.1973 0.5108,0.2963 0.8501,0.2963 h 1.7731 c 0.3177,0 0.5882,-0.0258 0.807,-0.0817 0.2191,-0.0558 0.4121,-0.146 0.5839,-0.2704 0.1718,-0.1244 0.3348,-0.3005 0.4853,-0.5238 0.1503,-0.2189 0.3047,-0.4981 0.4635,-0.8244 l 3.164,-5.9547 c 0.1848,-0.3606 0.3651,-0.7169 0.5454,-1.0647 0.1803,-0.3478 0.3563,-0.6953 0.5196,-1.0431 0.1672,-0.3479 0.3305,-0.6914 0.4892,-1.0262 0.1633,-0.339 0.3178,-0.6741 0.468,-1.0088 h 0.0128 c -0.0255,0.5882 -0.0471,1.2021 -0.0601,1.8374 -0.0127,0.6398 -0.017,1.2495 -0.017,1.8289 v 7.6419 c 0,0.0817 0.0258,0.159 0.0771,0.2276 0.0473,0.0644 0.1332,0.1245 0.2492,0.1761 0.1202,0.0516 0.2746,0.0859 0.468,0.1071 0.193,0.0216 0.4422,0.0301 0.7426,0.0301 0.2878,0 0.5281,-0.008 0.7212,-0.0301 0.1933,-0.0212 0.3393,-0.0555 0.4464,-0.1071 0.1032,-0.0516 0.1806,-0.1117 0.2192,-0.1761 0.0428,-0.0686 0.0643,-0.1417 0.0643,-0.2276 z m 17.07,7.2213 c 0,-1.4942 -0.1934,-2.7692 -0.584,-3.8339 -0.3906,-1.0604 -0.9487,-1.9233 -1.6787,-2.5974 -0.7299,-0.6698 -1.6185,-1.1633 -2.6617,-1.4768 -1.0434,-0.3135 -2.2884,-0.4723 -3.731,-0.4723 h -3.8851 c -0.2792,0 -0.5111,0.0817 -0.6999,0.2447 -0.1891,0.1632 -0.2835,0.4294 -0.2835,0.7985 v 14.1933 c 0,0.3694 0.0944,0.6356 0.2835,0.7985 0.1888,0.1633 0.4207,0.245 0.6999,0.245 h 4.1729 c 1.451,0 2.6832,-0.1718 3.6921,-0.5111 1.0131,-0.339 1.8632,-0.8413 2.5546,-1.5069 0.6911,-0.6696 1.2192,-1.4939 1.5797,-2.4727 0.3606,-0.9833 0.5412,-2.1166 0.5412,-3.4089 z m -3.4263,-0.116 c 0,0.7728 -0.0901,1.4854 -0.2704,2.151 -0.1803,0.661 -0.468,1.2322 -0.8671,1.7172 -0.3994,0.4853 -0.9102,0.8674 -1.5327,1.1378 -0.6268,0.2704 -1.4426,0.4079 -2.4599,0.4079 h -1.6702 v -11.0508 h 1.7215 c 0.9059,0 1.6702,0.1159 2.2884,0.352 0.6182,0.2319 1.1375,0.5882 1.5542,1.0605 0.4122,0.4722 0.7212,1.0604 0.9272,1.7645 0.2061,0.7042 0.309,1.5239 0.309,2.4599 z m 15.2839,-7.8137 c 0,-0.0813 -0.0258,-0.1587 -0.0817,-0.2273 -0.0558,-0.0646 -0.146,-0.1205 -0.2704,-0.1633 -0.1244,-0.0385 -0.2962,-0.0728 -0.5023,-0.0986 -0.2103,-0.0258 -0.4808,-0.0389 -0.807,-0.0389 -0.3178,0 -0.584,0.0131 -0.7988,0.0389 -0.2146,0.0258 -0.3864,0.0601 -0.5108,0.0986 -0.1245,0.0428 -0.2146,0.0987 -0.2705,0.1633 -0.0558,0.0686 -0.0816,0.146 -0.0816,0.2273 v 15.3783 c 0,0.0816 0.0258,0.159 0.0816,0.2276 0.0559,0.0643 0.146,0.1202 0.279,0.1633 0.1289,0.0428 0.2962,0.0728 0.5068,0.0986 0.2103,0.0258 0.4765,0.0386 0.7943,0.0386 0.3262,0 0.5967,-0.0128 0.807,-0.0386 0.2061,-0.0258 0.3779,-0.0558 0.5023,-0.0986 0.1244,-0.0431 0.2146,-0.099 0.2704,-0.1633 0.0559,-0.0686 0.0817,-0.146 0.0817,-0.2276 z m 16.9667,0.7084 c 0,-0.193 -0.0343,-0.3648 -0.0986,-0.5193 -0.0689,-0.1502 -0.159,-0.275 -0.275,-0.3779 -0.1114,-0.0986 -0.2446,-0.1717 -0.3991,-0.2191 -0.159,-0.047 -0.3135,-0.0686 -0.4722,-0.0686 h -1.4125 c -0.2963,0 -0.5497,0.0301 -0.7643,0.0859 -0.2103,0.0601 -0.4079,0.1675 -0.5882,0.322 -0.1845,0.1545 -0.3563,0.3649 -0.5238,0.631 -0.1672,0.2619 -0.3563,0.6055 -0.5666,1.0262 l -4.04,7.6118 c -0.2361,0.4553 -0.4722,0.9445 -0.7169,1.4684 -0.2446,0.5238 -0.4595,1.0346 -0.6525,1.5284 h -0.0258 c 0.0343,-0.6054 0.0601,-1.2064 0.0774,-1.8076 0.017,-0.5967 0.0258,-1.2192 0.0258,-1.8544 v -8.5221 c 0,-0.0817 -0.0216,-0.159 -0.0689,-0.2276 -0.0471,-0.0644 -0.1287,-0.1202 -0.2404,-0.1676 -0.1117,-0.047 -0.2661,-0.0813 -0.4595,-0.1071 -0.193,-0.0258 -0.4422,-0.0389 -0.7426,-0.0389 -0.2963,0 -0.5409,0.0131 -0.7342,0.0389 -0.1931,0.0258 -0.3433,0.0601 -0.4507,0.1071 -0.1117,0.0431 -0.1888,0.1032 -0.2277,0.1676 -0.0428,0.0686 -0.0643,0.1459 -0.0643,0.2276 v 14.6313 c 0,0.3948 0.1159,0.6911 0.3478,0.8886 0.2276,0.1973 0.5108,0.2963 0.8501,0.2963 h 1.7731 c 0.3178,0 0.5882,-0.0258 0.807,-0.0817 0.2191,-0.0558 0.4122,-0.146 0.584,-0.2704 0.1717,-0.1244 0.3347,-0.3005 0.4852,-0.5238 0.1503,-0.2189 0.3048,-0.4981 0.4635,-0.8244 l 3.164,-5.9547 c 0.1849,-0.3606 0.3651,-0.7169 0.5454,-1.0647 0.1803,-0.3478 0.3563,-0.6953 0.5196,-1.0431 0.1673,-0.3479 0.3305,-0.6914 0.4893,-1.0262 0.1633,-0.339 0.3177,-0.6741 0.468,-1.0088 h 0.0127 c -0.0255,0.5882 -0.047,1.2021 -0.0601,1.8374 -0.0127,0.6398 -0.017,1.2495 -0.017,1.8289 v 7.6419 c 0,0.0817 0.0258,0.159 0.0771,0.2276 0.0474,0.0644 0.1333,0.1245 0.2492,0.1761 0.1202,0.0516 0.2747,0.0859 0.468,0.1071 0.193,0.0216 0.4422,0.0301 0.7427,0.0301 0.2877,0 0.5281,-0.008 0.7211,-0.0301 0.1933,-0.0212 0.3393,-0.0555 0.4465,-0.1071 0.1031,-0.0516 0.1805,-0.1117 0.2191,-0.1761 0.0428,-0.0686 0.0643,-0.1417 0.0643,-0.2276 z m 13.2061,3.7267 c 0,-0.8589 -0.159,-1.6058 -0.4768,-2.2541 -0.3217,-0.644 -0.7512,-1.1806 -1.2963,-1.6143 -0.5496,-0.4292 -1.1852,-0.7555 -1.9148,-0.9746 -0.7299,-0.2188 -1.5114,-0.3262 -2.3442,-0.3262 -0.5624,0 -1.0817,0.0473 -1.567,0.1417 -0.4808,0.0944 -0.906,0.2061 -1.2751,0.3393 -0.3693,0.1287 -0.6783,0.2662 -0.9275,0.4122 -0.2488,0.1459 -0.4249,0.2746 -0.5366,0.3821 -0.1071,0.1114 -0.1845,0.2704 -0.2318,0.4765 -0.0471,0.2061 -0.0686,0.498 -0.0686,0.8844 0,0.2619 0.009,0.4765 0.0258,0.6525 0.0173,0.176 0.0428,0.3178 0.0816,0.4292 0.0386,0.1074 0.0901,0.1848 0.1502,0.2319 0.0644,0.0473 0.1372,0.0688 0.2231,0.0688 0.116,0 0.2835,-0.0688 0.4981,-0.2106 0.2148,-0.1372 0.4895,-0.2917 0.8243,-0.4592 0.335,-0.1675 0.7384,-0.322 1.2064,-0.4595 0.4638,-0.1414 1.0046,-0.2103 1.6186,-0.2103 0.4037,0 0.7642,0.0473 1.082,0.1417 0.3217,0.0987 0.5924,0.2319 0.8155,0.4079 0.2234,0.1761 0.3906,0.3906 0.5111,0.6483 0.1156,0.2577 0.176,0.5451 0.176,0.8629 0,0.3693 -0.0989,0.6868 -0.3007,0.9487 -0.2019,0.2662 -0.4635,0.4981 -0.7898,0.7042 -0.322,0.206 -0.6913,0.3994 -1.1035,0.5796 -0.4079,0.1803 -0.8328,0.3691 -1.2708,0.5709 -0.4379,0.2019 -0.8628,0.4295 -1.2707,0.6869 -0.4122,0.2534 -0.7813,0.5581 -1.1033,0.9144 -0.3262,0.3563 -0.5882,0.7773 -0.79,1.2665 -0.2018,0.4853 -0.3005,1.069 -0.3005,1.7473 0,0.7773 0.146,1.4641 0.4335,2.0566 0.2877,0.5881 0.6783,1.0777 1.1678,1.4683 0.4938,0.3906 1.069,0.6826 1.7345,0.8759 0.6653,0.1931 1.3737,0.2874 2.1209,0.2874 0.3821,0 0.7685,-0.03 1.1549,-0.0901 0.3863,-0.0558 0.7469,-0.1372 1.0817,-0.2361 0.335,-0.1029 0.6312,-0.2146 0.8932,-0.339 0.2573,-0.129 0.4291,-0.2319 0.515,-0.3178 0.0817,-0.0816 0.1375,-0.1545 0.1675,-0.2103 0.0301,-0.0601 0.0559,-0.1375 0.0771,-0.2362 0.0216,-0.0944 0.0346,-0.2146 0.0431,-0.3648 0.008,-0.146 0.0128,-0.3265 0.0128,-0.5454 0,-0.2404 -0.004,-0.4464 -0.017,-0.614 -0.0131,-0.1672 -0.0343,-0.3047 -0.0644,-0.4164 -0.03,-0.1074 -0.0731,-0.1888 -0.1247,-0.2361 -0.0558,-0.0516 -0.1287,-0.0771 -0.2231,-0.0771 -0.0901,0 -0.2361,0.0601 -0.4379,0.1758 -0.2019,0.1159 -0.4507,0.2449 -0.7427,0.3866 -0.2962,0.1372 -0.6355,0.2616 -1.0219,0.3733 -0.3864,0.116 -0.807,0.1718 -1.2708,0.1718 -0.3605,0 -0.674,-0.0428 -0.9445,-0.1329 -0.2661,-0.0859 -0.4895,-0.2107 -0.6698,-0.3651 -0.1803,-0.1545 -0.3175,-0.3391 -0.4034,-0.5582 -0.0901,-0.2188 -0.1332,-0.4507 -0.1332,-0.6911 0,-0.3605 0.0989,-0.6741 0.2962,-0.936 0.1976,-0.2661 0.4638,-0.5023 0.7943,-0.7084 0.3305,-0.2018 0.7084,-0.3948 1.129,-0.5751 0.4164,-0.1806 0.8459,-0.3736 1.2838,-0.5712 0.438,-0.2018 0.8672,-0.4291 1.2836,-0.6868 0.4209,-0.2577 0.7942,-0.5624 1.125,-0.9187 0.3263,-0.3563 0.5925,-0.7728 0.794,-1.258 0.2019,-0.4808 0.3008,-1.0474 0.3008,-1.7 z m 13.6695,6.4483 c 0,-0.9187 -0.1417,-1.7258 -0.4292,-2.4299 -0.2834,-0.7084 -0.6998,-1.3008 -1.2495,-1.7818 -0.5451,-0.4851 -1.2149,-0.8499 -2.0092,-1.1033 -0.7942,-0.2534 -1.73,-0.3778 -2.8077,-0.3778 h -1.3609 v -5.1906 c 0,-0.0859 -0.0258,-0.1587 -0.0816,-0.2273 -0.0559,-0.0646 -0.146,-0.1205 -0.2705,-0.1633 -0.1244,-0.0428 -0.2919,-0.0728 -0.5023,-0.0986 -0.2061,-0.0258 -0.4765,-0.0389 -0.7985,-0.0389 -0.3178,0 -0.5839,0.0131 -0.7985,0.0389 -0.2146,0.0258 -0.3821,0.0601 -0.5066,0.0986 -0.1244,0.0428 -0.2148,0.0987 -0.2619,0.1633 -0.0516,0.0686 -0.0774,0.146 -0.0774,0.2273 v 14.6444 c 0,0.3948 0.1032,0.6911 0.3093,0.8886 0.2061,0.1973 0.4765,0.2963 0.8113,0.2963 h 3.8381 c 0.3863,0 0.7557,-0.0131 1.1035,-0.0431 0.3475,-0.0301 0.7642,-0.0944 1.2535,-0.1888 0.4853,-0.0987 0.9788,-0.2747 1.4768,-0.5366 0.4981,-0.2577 0.9275,-0.5882 1.2796,-0.9876 0.3521,-0.3991 0.6225,-0.8629 0.807,-1.3995 0.1846,-0.5323 0.2747,-1.129 0.2747,-1.7903 z m -3.4518,-0.2404 c 0,0.5709 -0.1029,1.0431 -0.3047,1.4125 -0.2018,0.3691 -0.4507,0.644 -0.7469,0.8201 -0.2962,0.176 -0.6055,0.2874 -0.9275,0.3347 -0.3263,0.0474 -0.661,0.0686 -1.0089,0.0686 h -1.4167 v -5.538 h 1.4941 c 0.5324,0 0.9746,0.0728 1.3351,0.2146 0.3564,0.1417 0.6526,0.3435 0.8802,0.6009 0.2273,0.2534 0.3991,0.5624 0.5193,0.9187 0.1159,0.3563 0.176,0.7472 0.176,1.1679 z m 15.6405,-9.7929 c 0,-0.2446 -0.009,-0.4464 -0.0301,-0.6139 -0.0215,-0.163 -0.0516,-0.2963 -0.0944,-0.3949 -0.043,-0.1032 -0.0946,-0.176 -0.159,-0.2234 -0.0601,-0.047 -0.1329,-0.0686 -0.2061,-0.0686 h -8.1657 c -0.2747,0 -0.5066,0.0817 -0.6954,0.2447 -0.189,0.1632 -0.2834,0.4294 -0.2834,0.7985 v 14.1933 c 0,0.3694 0.0944,0.6356 0.2834,0.7985 0.1888,0.1633 0.4207,0.245 0.6954,0.245 h 8.1272 c 0.0728,0 0.1417,-0.0216 0.2018,-0.0644 0.0559,-0.0431 0.1072,-0.1159 0.1503,-0.2191 0.0385,-0.1074 0.0728,-0.2404 0.0943,-0.4037 0.0216,-0.1672 0.0301,-0.3733 0.0301,-0.6267 0,-0.2361 -0.009,-0.4334 -0.0301,-0.6009 -0.0215,-0.1633 -0.0515,-0.2963 -0.0943,-0.3952 -0.0431,-0.1029 -0.0944,-0.176 -0.1503,-0.2231 -0.0601,-0.0473 -0.129,-0.0686 -0.2018,-0.0686 h -5.8088 v -3.9671 h 4.8943 c 0.0771,0 0.146,-0.0215 0.2061,-0.0686 0.0644,-0.0473 0.1159,-0.1159 0.1588,-0.2145 0.043,-0.0947 0.0731,-0.2234 0.0943,-0.3909 0.0216,-0.163 0.0301,-0.3606 0.0301,-0.5925 0,-0.2446 -0.009,-0.4464 -0.0301,-0.6052 -0.0212,-0.159 -0.0513,-0.2877 -0.0943,-0.3821 -0.0429,-0.0989 -0.0944,-0.1675 -0.1588,-0.2061 -0.0601,-0.0431 -0.129,-0.0643 -0.2061,-0.0643 h -4.8943 v -4.5853 h 5.8473 c 0.0774,0 0.146,-0.0216 0.2061,-0.0686 0.0644,-0.0474 0.116,-0.1202 0.159,-0.2234 0.0428,-0.0987 0.0729,-0.2319 0.0944,-0.3949 0.0213,-0.1675 0.0301,-0.3693 0.0301,-0.614"
             inkscape:connector-curvature="0" />
          <path
             id="path4782"
             style="fill:#808285;fill-opacity:1;fill-rule:nonzero;stroke:none"
             d="m 415.2509,285.512 c 0,-0.2103 -0.004,-0.3906 -0.0173,-0.5366 -0.0127,-0.146 -0.0343,-0.2746 -0.0601,-0.3778 -0.0215,-0.1072 -0.0558,-0.1973 -0.0986,-0.2747 -0.0431,-0.0729 -0.1074,-0.1587 -0.2018,-0.2534 -0.0902,-0.0944 -0.2705,-0.2189 -0.5324,-0.3691 -0.2661,-0.146 -0.5882,-0.292 -0.9703,-0.4294 -0.3821,-0.133 -0.8158,-0.2489 -1.305,-0.3391 -0.4896,-0.0901 -1.0219,-0.1374 -1.5928,-0.1374 -1.1121,0 -2.1167,0.1717 -3.0138,0.5153 -0.8975,0.3433 -1.6617,0.8586 -2.2884,1.5412 -0.631,0.6826 -1.1121,1.5327 -1.4468,2.5588 -0.3348,1.0216 -0.5023,2.2111 -0.5023,3.5677 0,1.3822 0.1845,2.6102 0.5538,3.6834 0.3691,1.0734 0.8845,1.9748 1.5455,2.7048 0.6613,0.7299 1.4556,1.2792 2.3828,1.6571 0.923,0.3779 1.9449,0.5666 3.0611,0.5666 0.4507,0 0.8844,-0.0385 1.3051,-0.1156 0.4207,-0.0731 0.807,-0.1718 1.1633,-0.2965 0.3564,-0.1202 0.6741,-0.2616 0.9618,-0.4207 0.2835,-0.163 0.485,-0.3004 0.5967,-0.4121 0.1117,-0.116 0.1891,-0.2104 0.2319,-0.2832 0.0428,-0.0774 0.0774,-0.1718 0.0987,-0.2877 0.0257,-0.1202 0.0473,-0.2577 0.06,-0.4164 0.0131,-0.1591 0.0173,-0.3521 0.0173,-0.5882 0,-0.2492 -0.008,-0.4638 -0.0258,-0.6398 -0.017,-0.176 -0.047,-0.3178 -0.0858,-0.4249 -0.0428,-0.1074 -0.0944,-0.1891 -0.1503,-0.2361 -0.0601,-0.0516 -0.1287,-0.0774 -0.2018,-0.0774 -0.1245,0 -0.2832,0.0731 -0.4765,0.2191 -0.1931,0.146 -0.4422,0.309 -0.7469,0.4892 -0.3051,0.1803 -0.6699,0.3436 -1.0948,0.4896 -0.4209,0.146 -0.9232,0.2188 -1.5114,0.2188 -0.6438,0 -1.2192,-0.1329 -1.7257,-0.3948 -0.5066,-0.2662 -0.936,-0.6398 -1.2924,-1.1291 -0.3563,-0.4938 -0.6267,-1.0862 -0.8112,-1.7818 -0.1849,-0.6911 -0.275,-1.4769 -0.275,-2.3483 0,-0.9532 0.0989,-1.7818 0.2962,-2.4817 0.1976,-0.6953 0.4768,-1.275 0.8416,-1.7257 0.3606,-0.4507 0.8028,-0.79 1.3181,-1.0089 0.5151,-0.2233 1.0948,-0.335 1.7388,-0.335 0.5837,0 1.0905,0.0689 1.5197,0.2061 0.4249,0.1374 0.79,0.2919 1.0947,0.4552 0.3093,0.1675 0.5581,0.3178 0.7557,0.4507 0.1973,0.1332 0.3478,0.2018 0.4592,0.2018 0.0817,0 0.1503,-0.0173 0.1976,-0.0516 0.0516,-0.0343 0.0944,-0.0986 0.1287,-0.2018 0.03,-0.0986 0.0558,-0.2404 0.0731,-0.4206 0.017,-0.1846 0.0258,-0.425 0.0258,-0.73 z m 13.3217,12.4634 c 0,-0.2449 -0.009,-0.451 -0.03,-0.6267 -0.0216,-0.1718 -0.0516,-0.3093 -0.0944,-0.4122 -0.0431,-0.1074 -0.0947,-0.1848 -0.159,-0.2319 -0.0601,-0.0516 -0.133,-0.0774 -0.2061,-0.0774 h -4.07 v -13.1244 c 0,-0.0813 -0.0255,-0.1587 -0.0814,-0.2273 -0.0558,-0.0646 -0.1459,-0.1205 -0.2707,-0.1633 -0.1244,-0.0385 -0.2962,-0.0728 -0.5108,-0.0986 -0.2145,-0.0258 -0.4807,-0.0389 -0.7985,-0.0389 -0.3177,0 -0.5839,0.0131 -0.7985,0.0389 -0.2146,0.0258 -0.3864,0.0601 -0.5108,0.0986 -0.1247,0.0428 -0.2149,0.0987 -0.2704,0.1633 -0.0559,0.0686 -0.0817,0.146 -0.0817,0.2273 v 13.1244 h -4.07 c -0.0816,0 -0.1544,0.0258 -0.2145,0.0774 -0.0559,0.0471 -0.1075,0.1245 -0.1506,0.2319 -0.0385,0.1029 -0.0728,0.2404 -0.0943,0.4122 -0.0213,0.1757 -0.0301,0.3818 -0.0301,0.6267 0,0.2489 0.009,0.4635 0.0301,0.6395 0.0215,0.176 0.0558,0.3178 0.0943,0.4209 0.0431,0.1072 0.0947,0.1803 0.1506,0.2274 0.0601,0.0473 0.1329,0.0689 0.2145,0.0689 h 11.4628 c 0.0731,0 0.1417,-0.0216 0.2061,-0.0689 0.0643,-0.0471 0.1159,-0.1202 0.159,-0.2274 0.0428,-0.1031 0.0728,-0.2449 0.0944,-0.4209 0.0215,-0.176 0.03,-0.3906 0.03,-0.6395 z m 5.2591,-14.4726 c 0,-0.0813 -0.0257,-0.1587 -0.0816,-0.2273 -0.0558,-0.0646 -0.146,-0.1205 -0.2704,-0.1633 -0.1245,-0.0385 -0.2962,-0.0728 -0.5023,-0.0986 -0.2103,-0.0258 -0.4808,-0.0389 -0.807,-0.0389 -0.3178,0 -0.584,0.0131 -0.7988,0.0389 -0.2146,0.0258 -0.3864,0.0601 -0.5108,0.0986 -0.1245,0.0428 -0.2146,0.0987 -0.2705,0.1633 -0.0558,0.0686 -0.0816,0.146 -0.0816,0.2273 v 15.3783 c 0,0.0816 0.0258,0.159 0.0816,0.2276 0.0559,0.0643 0.146,0.1202 0.279,0.1633 0.1289,0.0428 0.2962,0.0728 0.5068,0.0986 0.2103,0.0258 0.4765,0.0386 0.7943,0.0386 0.3262,0 0.5967,-0.0128 0.807,-0.0386 0.2061,-0.0258 0.3778,-0.0558 0.5023,-0.0986 0.1244,-0.0431 0.2146,-0.099 0.2704,-0.1633 0.0559,-0.0686 0.0816,-0.146 0.0816,-0.2276 z m 18.1775,7.8781 c 0,-1.3479 -0.1675,-2.5543 -0.5023,-3.619 -0.3348,-1.0647 -0.8328,-1.9707 -1.4984,-2.7091 -0.661,-0.7427 -1.4811,-1.3096 -2.4556,-1.7002 -0.9789,-0.3906 -2.1079,-0.5839 -3.3917,-0.5839 -1.2665,0 -2.3698,0.1675 -3.31,0.498 -0.9445,0.3305 -1.7303,0.8331 -2.3613,1.5157 -0.6267,0.6783 -1.099,1.5412 -1.4125,2.5886 -0.3135,1.0477 -0.4722,2.2884 -0.4722,3.7224 0,1.3136 0.1675,2.4985 0.5023,3.5504 0.3347,1.0517 0.8328,1.9449 1.4984,2.6833 0.661,0.7384 1.4811,1.3051 2.4556,1.6957 0.9788,0.3952 2.1124,0.5924 3.4044,0.5924 1.2322,0 2.3185,-0.1629 3.263,-0.4892 0.9402,-0.3263 1.7302,-0.8286 2.3612,-1.5112 0.6356,-0.6783 1.1121,-1.5327 1.4341,-2.5673 0.322,-1.0392 0.485,-2.2584 0.485,-3.6666 z m -3.4775,-0.1673 c 0,0.8544 -0.0686,1.6314 -0.2019,2.3313 -0.1329,0.6995 -0.3605,1.3008 -0.6826,1.7988 -0.322,0.4978 -0.7511,0.8844 -1.2877,1.1591 -0.5369,0.2704 -1.2065,0.4079 -2.0092,0.4079 -0.8116,0 -1.4899,-0.1548 -2.0308,-0.4595 -0.5454,-0.3047 -0.9876,-0.7169 -1.3223,-1.228 -0.3348,-0.5108 -0.5709,-1.1075 -0.7084,-1.79 -0.1375,-0.6869 -0.2061,-1.4083 -0.2061,-2.1725 0,-0.8887 0.0686,-1.6872 0.2018,-2.3956 0.133,-0.7083 0.3606,-1.3138 0.6784,-1.8204 0.3174,-0.5023 0.7426,-0.8844 1.2792,-1.1506 0.5366,-0.2619 1.2107,-0.3948 2.0223,-0.3948 0.8113,0 1.4896,0.1502 2.0304,0.4549 0.5454,0.3008 0.9876,0.7129 1.3224,1.2323 0.3351,0.5195 0.5712,1.1247 0.7084,1.8161 0.1375,0.6911 0.2061,1.4295 0.2061,2.211 z m 19.6886,-7.0024 c 0,-0.193 -0.0343,-0.3648 -0.0987,-0.5193 -0.0689,-0.1502 -0.159,-0.275 -0.275,-0.3779 -0.1114,-0.0986 -0.2446,-0.1717 -0.3991,-0.2191 -0.159,-0.047 -0.3135,-0.0686 -0.4722,-0.0686 h -1.4125 c -0.2962,0 -0.5497,0.0301 -0.7642,0.0859 -0.2104,0.0601 -0.408,0.1675 -0.5882,0.322 -0.1846,0.1545 -0.3564,0.3649 -0.5239,0.631 -0.1672,0.2619 -0.3563,0.6055 -0.5666,1.0262 l -4.04,7.6118 c -0.2361,0.4553 -0.4722,0.9445 -0.7168,1.4684 -0.2447,0.5238 -0.4595,1.0346 -0.6526,1.5284 h -0.0258 c 0.0343,-0.6054 0.0601,-1.2064 0.0774,-1.8076 0.017,-0.5967 0.0258,-1.2192 0.0258,-1.8544 v -8.5221 c 0,-0.0817 -0.0215,-0.159 -0.0689,-0.2276 -0.047,-0.0644 -0.1287,-0.1202 -0.2404,-0.1676 -0.1116,-0.047 -0.2661,-0.0813 -0.4595,-0.1071 -0.193,-0.0258 -0.4422,-0.0389 -0.7426,-0.0389 -0.2962,0 -0.5409,0.0131 -0.7342,0.0389 -0.193,0.0258 -0.3433,0.0601 -0.4507,0.1071 -0.1117,0.0431 -0.1888,0.1032 -0.2276,0.1676 -0.0428,0.0686 -0.0644,0.1459 -0.0644,0.2276 v 14.6313 c 0,0.3948 0.116,0.6911 0.3478,0.8886 0.2277,0.1973 0.5108,0.2963 0.8501,0.2963 h 1.7731 c 0.3178,0 0.5882,-0.0258 0.807,-0.0817 0.2192,-0.0558 0.4122,-0.146 0.584,-0.2704 0.1718,-0.1244 0.3347,-0.3005 0.4853,-0.5238 0.1502,-0.2189 0.3047,-0.4981 0.4634,-0.8244 l 3.1641,-5.9547 c 0.1848,-0.3606 0.3651,-0.7169 0.5453,-1.0647 0.1803,-0.3478 0.3564,-0.6953 0.5196,-1.0431 0.1673,-0.3479 0.3306,-0.6914 0.4893,-1.0262 0.1633,-0.339 0.3178,-0.6741 0.468,-1.0088 h 0.0128 c -0.0256,0.5882 -0.0471,1.2021 -0.0601,1.8374 -0.0128,0.6398 -0.017,1.2495 -0.017,1.8289 v 7.6419 c 0,0.0817 0.0257,0.159 0.0771,0.2276 0.0473,0.0644 0.1332,0.1245 0.2491,0.1761 0.1202,0.0516 0.2747,0.0859 0.468,0.1071 0.1931,0.0216 0.4422,0.0301 0.7427,0.0301 0.2877,0 0.5281,-0.008 0.7211,-0.0301 0.1934,-0.0212 0.3393,-0.0555 0.4465,-0.1071 0.1032,-0.0516 0.1806,-0.1117 0.2191,-0.1761 0.0428,-0.0686 0.0644,-0.1417 0.0644,-0.2276 z m 23.9989,7.1697 c 0,-1.3479 -0.1675,-2.5543 -0.5023,-3.619 -0.3348,-1.0647 -0.8328,-1.9707 -1.4984,-2.7091 -0.661,-0.7427 -1.4811,-1.3096 -2.4556,-1.7002 -0.9788,-0.3906 -2.1079,-0.5839 -3.3917,-0.5839 -1.2665,0 -2.3698,0.1675 -3.31,0.498 -0.9445,0.3305 -1.7303,0.8331 -2.3613,1.5157 -0.6267,0.6783 -1.099,1.5412 -1.4125,2.5886 -0.3135,1.0477 -0.4722,2.2884 -0.4722,3.7224 0,1.3136 0.1675,2.4985 0.5023,3.5504 0.3348,1.0517 0.8328,1.9449 1.4984,2.6833 0.661,0.7384 1.4811,1.3051 2.4556,1.6957 0.9788,0.3952 2.1124,0.5924 3.4044,0.5924 1.2323,0 2.3185,-0.1629 3.263,-0.4892 0.9402,-0.3263 1.7303,-0.8286 2.3613,-1.5112 0.6355,-0.6783 1.112,-1.5327 1.434,-2.5673 0.322,-1.0392 0.485,-2.2584 0.485,-3.6666 z m -3.4775,-0.1673 c 0,0.8544 -0.0686,1.6314 -0.2019,2.3313 -0.1329,0.6995 -0.3605,1.3008 -0.6825,1.7988 -0.3221,0.4978 -0.7512,0.8844 -1.2878,1.1591 -0.5369,0.2704 -1.2064,0.4079 -2.0092,0.4079 -0.8116,0 -1.4899,-0.1548 -2.0308,-0.4595 -0.5453,-0.3047 -0.9875,-0.7169 -1.3223,-1.228 -0.3348,-0.5108 -0.5709,-1.1075 -0.7084,-1.79 -0.1375,-0.6869 -0.2061,-1.4083 -0.2061,-2.1725 0,-0.8887 0.0686,-1.6872 0.2019,-2.3956 0.1329,-0.7083 0.3605,-1.3138 0.6783,-1.8204 0.3175,-0.5023 0.7427,-0.8844 1.2793,-1.1506 0.5366,-0.2619 1.2106,-0.3948 2.0222,-0.3948 0.8113,0 1.4896,0.1502 2.0305,0.4549 0.5453,0.3008 0.9875,0.7129 1.3223,1.2323 0.3351,0.5195 0.5712,1.1247 0.7084,1.8161 0.1375,0.6911 0.2061,1.4295 0.2061,2.211 z m 15.4125,6.7618 c 0,-0.2534 -0.009,-0.4637 -0.03,-0.6355 -0.0216,-0.1718 -0.0559,-0.309 -0.1029,-0.4122 -0.0474,-0.0986 -0.099,-0.176 -0.1548,-0.2231 -0.0601,-0.0516 -0.1287,-0.0774 -0.2016,-0.0774 h -5.3322 v -4.3789 h 5.0014 c 0.0774,0 0.146,-0.0216 0.2019,-0.0646 0.0601,-0.0386 0.1117,-0.1114 0.159,-0.2104 0.047,-0.1029 0.0771,-0.2361 0.0986,-0.4033 0.0216,-0.1676 0.0343,-0.3779 0.0343,-0.6313 0,-0.2489 -0.0127,-0.4592 -0.0343,-0.6268 -0.0215,-0.1675 -0.0516,-0.3047 -0.0986,-0.4164 -0.0473,-0.1074 -0.0989,-0.1845 -0.159,-0.2318 -0.0559,-0.0474 -0.1245,-0.0686 -0.2019,-0.0686 h -5.0014 v -6.0665 c 0,-0.0901 -0.0258,-0.1717 -0.0774,-0.2403 -0.047,-0.0644 -0.1372,-0.1202 -0.2704,-0.1676 -0.1287,-0.047 -0.3005,-0.0813 -0.5066,-0.1071 -0.2103,-0.0258 -0.4807,-0.0389 -0.807,-0.0389 -0.3178,0 -0.5839,0.0131 -0.7988,0.0389 -0.2146,0.0258 -0.3864,0.0601 -0.5108,0.1071 -0.1244,0.0431 -0.2146,0.1032 -0.2704,0.1676 -0.0559,0.0686 -0.0817,0.1502 -0.0817,0.2403 v 14.76 c 0,0.3694 0.0944,0.6356 0.2835,0.7985 0.1888,0.1633 0.4207,0.245 0.6999,0.245 h 7.6719 c 0.0729,0 0.1415,-0.0216 0.2016,-0.0689 0.0558,-0.0471 0.1074,-0.1202 0.1548,-0.2274 0.047,-0.1031 0.0813,-0.2449 0.1029,-0.4209 0.0215,-0.176 0.03,-0.3906 0.03,-0.6395 z m 19.7575,-12.4634 c 0,-0.2103 -0.004,-0.3906 -0.0173,-0.5366 -0.0128,-0.146 -0.0343,-0.2746 -0.0601,-0.3778 -0.0215,-0.1072 -0.0558,-0.1973 -0.0986,-0.2747 -0.0431,-0.0729 -0.1075,-0.1587 -0.2019,-0.2534 -0.0901,-0.0944 -0.2704,-0.2189 -0.5323,-0.3691 -0.2662,-0.146 -0.5882,-0.292 -0.9703,-0.4294 -0.3821,-0.133 -0.8158,-0.2489 -1.3051,-0.3391 -0.4895,-0.0901 -1.0219,-0.1374 -1.5928,-0.1374 -1.112,0 -2.1166,0.1717 -3.0138,0.5153 -0.8974,0.3433 -1.6616,0.8586 -2.2884,1.5412 -0.631,0.6826 -1.112,1.5327 -1.4468,2.5588 -0.3348,1.0216 -0.5023,2.2111 -0.5023,3.5677 0,1.3822 0.1846,2.6102 0.5539,3.6834 0.3691,1.0734 0.8844,1.9748 1.5455,2.7048 0.6613,0.7299 1.4555,1.2792 2.3828,1.6571 0.9229,0.3779 1.9448,0.5666 3.0611,0.5666 0.4507,0 0.8844,-0.0385 1.3051,-0.1156 0.4206,-0.0731 0.807,-0.1718 1.1633,-0.2965 0.3563,-0.1202 0.6741,-0.2616 0.9618,-0.4207 0.2835,-0.163 0.485,-0.3004 0.5967,-0.4121 0.1117,-0.116 0.1891,-0.2104 0.2319,-0.2832 0.0428,-0.0774 0.0773,-0.1718 0.0986,-0.2877 0.0258,-0.1202 0.0473,-0.2577 0.0601,-0.4164 0.013,-0.1591 0.0173,-0.3521 0.0173,-0.5882 0,-0.2492 -0.009,-0.4638 -0.0258,-0.6398 -0.017,-0.176 -0.0471,-0.3178 -0.0859,-0.4249 -0.0428,-0.1074 -0.0944,-0.1891 -0.1502,-0.2361 -0.0601,-0.0516 -0.1287,-0.0774 -0.2019,-0.0774 -0.1244,0 -0.2831,0.0731 -0.4765,0.2191 -0.193,0.146 -0.4422,0.309 -0.7469,0.4892 -0.305,0.1803 -0.6698,0.3436 -1.0947,0.4896 -0.421,0.146 -0.9233,0.2188 -1.5115,0.2188 -0.6437,0 -1.2191,-0.1329 -1.7257,-0.3948 -0.5065,-0.2662 -0.936,-0.6398 -1.2923,-1.1291 -0.3563,-0.4938 -0.6267,-1.0862 -0.8113,-1.7818 -0.1848,-0.6911 -0.2749,-1.4769 -0.2749,-2.3483 0,-0.9532 0.0989,-1.7818 0.2962,-2.4817 0.1976,-0.6953 0.4768,-1.275 0.8416,-1.7257 0.3606,-0.4507 0.8028,-0.79 1.3181,-1.0089 0.515,-0.2233 1.0947,-0.335 1.7388,-0.335 0.5836,0 1.0905,0.0689 1.5196,0.2061 0.4249,0.1374 0.79,0.2919 1.0948,0.4552 0.3092,0.1675 0.5581,0.3178 0.7557,0.4507 0.1973,0.1332 0.3478,0.2018 0.4592,0.2018 0.0816,0 0.1502,-0.0173 0.1976,-0.0516 0.0516,-0.0343 0.0944,-0.0986 0.1287,-0.2018 0.03,-0.0986 0.0558,-0.2404 0.0731,-0.4206 0.017,-0.1846 0.0258,-0.425 0.0258,-0.73 z m 12.0124,-1.1591 c 0,-0.2446 -0.009,-0.4464 -0.0301,-0.6139 -0.0215,-0.163 -0.0516,-0.2963 -0.0944,-0.3949 -0.0431,-0.1032 -0.0947,-0.176 -0.159,-0.2234 -0.0601,-0.047 -0.1329,-0.0686 -0.2061,-0.0686 h -8.1657 c -0.2747,0 -0.5066,0.0817 -0.6954,0.2447 -0.1891,0.1632 -0.2834,0.4294 -0.2834,0.7985 v 14.1933 c 0,0.3694 0.0943,0.6356 0.2834,0.7985 0.1888,0.1633 0.4207,0.245 0.6954,0.245 h 8.1272 c 0.0728,0 0.1417,-0.0216 0.2018,-0.0644 0.0558,-0.0431 0.1071,-0.1159 0.1502,-0.2191 0.0386,-0.1074 0.0729,-0.2404 0.0944,-0.4037 0.0216,-0.1672 0.0301,-0.3733 0.0301,-0.6267 0,-0.2361 -0.008,-0.4334 -0.0301,-0.6009 -0.0215,-0.1633 -0.0516,-0.2963 -0.0944,-0.3952 -0.0431,-0.1029 -0.0944,-0.176 -0.1502,-0.2231 -0.0601,-0.0473 -0.129,-0.0686 -0.2018,-0.0686 h -5.8088 v -3.9671 h 4.8943 c 0.0771,0 0.146,-0.0215 0.2061,-0.0686 0.0643,-0.0473 0.1159,-0.1159 0.1587,-0.2145 0.0431,-0.0947 0.0732,-0.2234 0.0944,-0.3909 0.0216,-0.163 0.0301,-0.3606 0.0301,-0.5925 0,-0.2446 -0.009,-0.4464 -0.0301,-0.6052 -0.0212,-0.159 -0.0513,-0.2877 -0.0944,-0.3821 -0.0428,-0.0989 -0.0944,-0.1675 -0.1587,-0.2061 -0.0601,-0.0431 -0.129,-0.0643 -0.2061,-0.0643 h -4.8943 v -4.5853 h 5.8473 c 0.0774,0 0.146,-0.0216 0.2061,-0.0686 0.0643,-0.0474 0.1159,-0.1202 0.159,-0.2234 0.0428,-0.0987 0.0729,-0.2319 0.0944,-0.3949 0.0213,-0.1675 0.0301,-0.3693 0.0301,-0.614 z m 11.8706,0.0817 c 0,-0.2492 -0.009,-0.4638 -0.03,-0.6355 -0.0216,-0.1718 -0.0559,-0.3133 -0.0944,-0.425 -0.0431,-0.1159 -0.0944,-0.1975 -0.1588,-0.2446 -0.0646,-0.0516 -0.1375,-0.0774 -0.2191,-0.0774 h -7.4574 c -0.2747,0 -0.5065,0.0817 -0.6953,0.2447 -0.1891,0.1632 -0.2835,0.4294 -0.2835,0.7985 v 14.7858 c 0,0.0816 0.0258,0.159 0.0817,0.2276 0.0558,0.0643 0.1459,0.1202 0.2704,0.1633 0.1244,0.0428 0.2962,0.0728 0.5108,0.0986 0.2149,0.0258 0.481,0.0386 0.7988,0.0386 0.3263,0 0.5967,-0.0128 0.807,-0.0386 0.2061,-0.0258 0.3779,-0.0558 0.5023,-0.0986 0.1245,-0.0431 0.2146,-0.099 0.2704,-0.1633 0.0559,-0.0686 0.0817,-0.146 0.0817,-0.2276 v -13.0984 h 5.1131 c 0.0816,0 0.159,-0.0215 0.2191,-0.0688 0.0644,-0.0471 0.1157,-0.1202 0.1588,-0.2277 0.0428,-0.1029 0.0728,-0.2403 0.0944,-0.4164 0.0215,-0.1715 0.03,-0.3821 0.03,-0.6352 z m 10.8919,0 c 0,-0.2492 -0.009,-0.4638 -0.0301,-0.6355 -0.0215,-0.1718 -0.0558,-0.3133 -0.0944,-0.425 -0.0431,-0.1159 -0.0944,-0.1975 -0.1587,-0.2446 -0.0647,-0.0516 -0.1375,-0.0774 -0.2191,-0.0774 h -7.4574 c -0.2747,0 -0.5066,0.0817 -0.6954,0.2447 -0.189,0.1632 -0.2834,0.4294 -0.2834,0.7985 v 14.7858 c 0,0.0816 0.0258,0.159 0.0816,0.2276 0.0558,0.0643 0.146,0.1202 0.2704,0.1633 0.1245,0.0428 0.2962,0.0728 0.5108,0.0986 0.2149,0.0258 0.4811,0.0386 0.7988,0.0386 0.3263,0 0.5967,-0.0128 0.8071,-0.0386 0.206,-0.0258 0.3778,-0.0558 0.5023,-0.0986 0.1244,-0.0431 0.2145,-0.099 0.2704,-0.1633 0.0558,-0.0686 0.0816,-0.146 0.0816,-0.2276 v -13.0984 h 5.1132 c 0.0816,0 0.159,-0.0215 0.2191,-0.0688 0.0643,-0.0471 0.1156,-0.1202 0.1587,-0.2277 0.0428,-0.1029 0.0729,-0.2403 0.0944,-0.4164 0.0215,-0.1715 0.0301,-0.3821 0.0301,-0.6352 z m 11.6132,3.5033 c 0,-0.8589 -0.159,-1.6058 -0.4768,-2.2541 -0.3217,-0.644 -0.7512,-1.1806 -1.2963,-1.6143 -0.5496,-0.4292 -1.1851,-0.7555 -1.9148,-0.9746 -0.7299,-0.2188 -1.5114,-0.3262 -2.3442,-0.3262 -0.5624,0 -1.0817,0.0473 -1.567,0.1417 -0.4808,0.0944 -0.906,0.2061 -1.275,0.3393 -0.3694,0.1287 -0.6784,0.2662 -0.9275,0.4122 -0.2489,0.1459 -0.4249,0.2746 -0.5366,0.3821 -0.1072,0.1114 -0.1846,0.2704 -0.2319,0.4765 -0.0471,0.2061 -0.0686,0.498 -0.0686,0.8844 0,0.2619 0.008,0.4765 0.0258,0.6525 0.0173,0.176 0.0428,0.3178 0.0816,0.4292 0.0386,0.1074 0.0902,0.1848 0.1503,0.2319 0.0643,0.0473 0.1372,0.0688 0.2231,0.0688 0.1159,0 0.2834,-0.0688 0.498,-0.2106 0.2149,-0.1372 0.4895,-0.2917 0.8243,-0.4592 0.3351,-0.1675 0.7384,-0.322 1.2064,-0.4595 0.4638,-0.1414 1.0046,-0.2103 1.6186,-0.2103 0.4037,0 0.7642,0.0473 1.082,0.1417 0.3217,0.0987 0.5925,0.2319 0.8155,0.4079 0.2234,0.1761 0.3907,0.3906 0.5111,0.6483 0.1157,0.2577 0.1761,0.5451 0.1761,0.8629 0,0.3693 -0.099,0.6868 -0.3008,0.9487 -0.2018,0.2662 -0.4635,0.4981 -0.7897,0.7042 -0.322,0.206 -0.6914,0.3994 -1.1036,0.5796 -0.4079,0.1803 -0.8328,0.3691 -1.2707,0.5709 -0.438,0.2019 -0.8629,0.4295 -1.2708,0.6869 -0.4122,0.2534 -0.7812,0.5581 -1.1032,0.9144 -0.3263,0.3563 -0.5882,0.7773 -0.7901,1.2665 -0.2018,0.4853 -0.3004,1.069 -0.3004,1.7473 0,0.7773 0.146,1.4641 0.4334,2.0566 0.2877,0.5881 0.6783,1.0777 1.1679,1.4683 0.4938,0.3906 1.0689,0.6826 1.7345,0.8759 0.6653,0.1931 1.3736,0.2874 2.1209,0.2874 0.3821,0 0.7684,-0.03 1.1548,-0.0901 0.3864,-0.0558 0.7469,-0.1372 1.0817,-0.2361 0.3351,-0.1029 0.6313,-0.2146 0.8932,-0.339 0.2574,-0.129 0.4292,-0.2319 0.515,-0.3178 0.0817,-0.0816 0.1375,-0.1545 0.1676,-0.2103 0.03,-0.0601 0.0558,-0.1375 0.0771,-0.2362 0.0215,-0.0944 0.0346,-0.2146 0.0431,-0.3648 0.009,-0.146 0.0127,-0.3265 0.0127,-0.5454 0,-0.2404 -0.004,-0.4464 -0.017,-0.614 -0.013,-0.1672 -0.0343,-0.3047 -0.0643,-0.4164 -0.0301,-0.1074 -0.0732,-0.1888 -0.1248,-0.2361 -0.0558,-0.0516 -0.1287,-0.0771 -0.223,-0.0771 -0.0902,0 -0.2362,0.0601 -0.438,0.1758 -0.2018,0.1159 -0.4507,0.2449 -0.7427,0.3866 -0.2962,0.1372 -0.6355,0.2616 -1.0219,0.3733 -0.3863,0.116 -0.807,0.1718 -1.2707,0.1718 -0.3606,0 -0.6741,-0.0428 -0.9445,-0.1329 -0.2662,-0.0859 -0.4896,-0.2107 -0.6699,-0.3651 -0.1803,-0.1545 -0.3174,-0.3391 -0.4033,-0.5582 -0.0902,-0.2188 -0.1333,-0.4507 -0.1333,-0.6911 0,-0.3605 0.099,-0.6741 0.2963,-0.936 0.1975,-0.2661 0.4637,-0.5023 0.7942,-0.7084 0.3305,-0.2018 0.7084,-0.3948 1.1291,-0.5751 0.4164,-0.1806 0.8458,-0.3736 1.2838,-0.5712 0.4379,-0.2018 0.8671,-0.4291 1.2835,-0.6868 0.4209,-0.2577 0.7943,-0.5624 1.1251,-0.9187 0.3262,-0.3563 0.5924,-0.7728 0.794,-1.258 0.2018,-0.4808 0.3007,-1.0474 0.3007,-1.7"
             inkscape:connector-curvature="0" />
        </g>
        <g
           id="g4784">
          <g
             id="g4786">
            <path
               id="path4788"
               style="fill:#339fad;fill-opacity:1;fill-rule:evenodd;stroke:#339fad;stroke-width:0.56690001;stroke-linecap:butt;stroke-linejoin:miter;stroke-miterlimit:22.92558479;stroke-dasharray:none;stroke-opacity:1"
               d="m 182.1563,340.7839 c -4.2092,0 -7.6212,3.4121 -7.6212,7.6213 0,4.2091 3.412,7.6212 7.6212,7.6212 4.2092,0 7.6212,-3.4121 7.6212,-7.6212 0,-4.2092 -3.412,-7.6213 -7.6212,-7.6213 z"
               inkscape:connector-curvature="0" />
            <path
               id="path4790"
               style="fill:#339fad;fill-opacity:1;fill-rule:evenodd;stroke:#339fad;stroke-width:0.56690001;stroke-linecap:butt;stroke-linejoin:miter;stroke-miterlimit:22.92558479;stroke-dasharray:none;stroke-opacity:1"
               d="m 135.6477,404.6539 c -5.7883,0 -10.4808,4.6925 -10.4808,10.4808 0,5.7884 4.6925,10.4808 10.4808,10.4808 5.7884,0 10.4808,-4.6924 10.4808,-10.4808 0,-5.7883 -4.6924,-10.4808 -10.4808,-10.4808 z"
               inkscape:connector-curvature="0" />
            <path
               id="path4792"
               style="fill:#339fad;fill-opacity:1;fill-rule:evenodd;stroke:#339fad;stroke-width:0.56690001;stroke-linecap:butt;stroke-linejoin:miter;stroke-miterlimit:22.92558479;stroke-dasharray:none;stroke-opacity:1"
               d="m 168.6756,401.3504 c -5.7515,0 -10.4139,4.6624 -10.4139,10.4139 0,5.7515 4.6624,10.4139 10.4139,10.4139 5.7515,0 10.4139,-4.6624 10.4139,-10.4139 0,-5.7515 -4.6624,-10.4139 -10.4139,-10.4139 z"
               inkscape:connector-curvature="0" />
            <path
               id="path4794"
               style="fill:#339fad;fill-opacity:1;fill-rule:evenodd;stroke:#339fad;stroke-width:0.56690001;stroke-linecap:butt;stroke-linejoin:miter;stroke-miterlimit:22.92558479;stroke-dasharray:none;stroke-opacity:1"
               d="m 196.9849,392.0842 c -6.0298,0 -10.9179,4.8881 -10.9179,10.9179 0,6.0299 4.8881,10.918 10.9179,10.918 6.0299,0 10.9179,-4.8881 10.9179,-10.918 0,-6.0298 -4.888,-10.9179 -10.9179,-10.9179 z"
               inkscape:connector-curvature="0" />
            <path
               id="path4796"
               style="fill:#339fad;fill-opacity:1;fill-rule:evenodd;stroke:#339fad;stroke-width:0.56690001;stroke-linecap:butt;stroke-linejoin:miter;stroke-miterlimit:22.92558479;stroke-dasharray:none;stroke-opacity:1"
               d="m 225.2948,367.3361 c -5.9241,0 -10.7266,4.8024 -10.7266,10.7265 0,5.9242 4.8025,10.7266 10.7266,10.7266 5.9241,0 10.7266,-4.8024 10.7266,-10.7266 0,-5.9241 -4.8025,-10.7265 -10.7266,-10.7265 z"
               inkscape:connector-curvature="0" />
            <path
               id="path4798"
               style="fill:#339fad;fill-opacity:1;fill-rule:evenodd;stroke:#339fad;stroke-width:0.56690001;stroke-linecap:butt;stroke-linejoin:miter;stroke-miterlimit:22.92558479;stroke-dasharray:none;stroke-opacity:1"
               d="m 240.1234,334.7875 c -6.7762,0 -12.2695,5.4933 -12.2695,12.2695 0,6.7762 5.4933,12.2695 12.2695,12.2695 6.7762,0 12.2695,-5.4933 12.2695,-12.2695 0,-6.7762 -5.4933,-12.2695 -12.2695,-12.2695 z"
               inkscape:connector-curvature="0" />
            <path
               id="path4800"
               style="fill:#339fad;fill-opacity:1;fill-rule:evenodd;stroke:#339fad;stroke-width:0.56690001;stroke-linecap:butt;stroke-linejoin:miter;stroke-miterlimit:22.92558479;stroke-dasharray:none;stroke-opacity:1"
               d="m 214.5101,348.4052 c -2.9781,0 -5.3923,2.4142 -5.3923,5.3923 0,2.9781 2.4142,5.3924 5.3923,5.3924 2.9781,0 5.3924,-2.4143 5.3924,-5.3924 0,-2.9781 -2.4143,-5.3923 -5.3924,-5.3923 z"
               inkscape:connector-curvature="0" />
            <path
               id="path4802"
               style="fill:#339fad;fill-opacity:1;fill-rule:evenodd;stroke:#339fad;stroke-width:0.56690001;stroke-linecap:butt;stroke-linejoin:miter;stroke-miterlimit:22.92558479;stroke-dasharray:none;stroke-opacity:1"
               d="m 193.6148,365.1976 c -4.4994,0 -8.1468,3.6473 -8.1468,8.1468 0,4.4994 3.6474,8.1467 8.1468,8.1467 4.4994,0 8.1468,-3.6473 8.1468,-8.1467 0,-4.4995 -3.6474,-8.1468 -8.1468,-8.1468 z"
               inkscape:connector-curvature="0" />
            <path
               id="path4804"
               style="fill:#339fad;fill-opacity:1;fill-rule:evenodd;stroke:#339fad;stroke-width:0.56690001;stroke-linecap:butt;stroke-linejoin:miter;stroke-miterlimit:22.92558479;stroke-dasharray:none;stroke-opacity:1"
               d="m 160.5869,366.5696 c -5.9751,0 -10.819,4.8438 -10.819,10.819 0,5.9751 4.8439,10.819 10.819,10.819 5.9752,0 10.819,-4.8439 10.819,-10.819 0,-5.9752 -4.8438,-10.819 -10.819,-10.819 z"
               inkscape:connector-curvature="0" />
            <path
               id="path4806"
               style="fill:#339fad;fill-opacity:1;fill-rule:evenodd;stroke:#339fad;stroke-width:0.56690001;stroke-linecap:butt;stroke-linejoin:miter;stroke-miterlimit:22.92558479;stroke-dasharray:none;stroke-opacity:1"
               d="m 126.885,373.712 c -5.7532,0 -10.4171,4.6639 -10.4171,10.4171 0,5.7532 4.6639,10.417 10.4171,10.417 5.7532,0 10.417,-4.6638 10.417,-10.417 0,-5.7532 -4.6638,-10.4171 -10.417,-10.4171 z"
               inkscape:connector-curvature="0" />
            <path
               id="path4808"
               style="fill:#339fad;fill-opacity:1;fill-rule:evenodd;stroke:#339fad;stroke-width:0.56690001;stroke-linecap:butt;stroke-linejoin:miter;stroke-miterlimit:22.92558479;stroke-dasharray:none;stroke-opacity:1"
               d="m 105.0673,398.1787 c -5.8816,0 -10.6495,4.7679 -10.6495,10.6495 0,5.8816 4.7679,10.6495 10.6495,10.6495 5.8816,0 10.6495,-4.7679 10.6495,-10.6495 0,-5.8816 -4.7679,-10.6495 -10.6495,-10.6495 z"
               inkscape:connector-curvature="0" />
            <path
               id="path4810"
               style="fill:#339fad;fill-opacity:1;fill-rule:evenodd;stroke:#339fad;stroke-width:0.56690001;stroke-linecap:butt;stroke-linejoin:miter;stroke-miterlimit:22.92558479;stroke-dasharray:none;stroke-opacity:1"
               d="m 75.6584,405.0488 c 5.9698,0 10.8093,-4.8396 10.8093,-10.8094 0,-5.9698 -4.8395,-10.8094 -10.8093,-10.8094 -5.9698,0 -10.8094,4.8396 -10.8094,10.8094 0,5.9698 4.8396,10.8094 10.8094,10.8094 z"
               inkscape:connector-curvature="0" />
            <path
               id="path4812"
               style="fill:#339fad;fill-opacity:1;fill-rule:evenodd;stroke:#339fad;stroke-width:0.56690001;stroke-linecap:butt;stroke-linejoin:miter;stroke-miterlimit:22.92558479;stroke-dasharray:none;stroke-opacity:1"
               d="m 95.8793,379.165 c 5.8204,0 10.5387,-4.7182 10.5387,-10.5386 0,-5.8204 -4.7183,-10.5387 -10.5387,-10.5387 -5.8203,0 -10.5386,4.7183 -10.5386,10.5387 0,5.8204 4.7183,10.5386 10.5386,10.5386 z"
               inkscape:connector-curvature="0" />
            <path
               id="path4814"
               style="fill:#339fad;fill-opacity:1;fill-rule:evenodd;stroke:#339fad;stroke-width:0.56690001;stroke-linecap:butt;stroke-linejoin:miter;stroke-miterlimit:22.92558479;stroke-dasharray:none;stroke-opacity:1"
               d="m 111.3823,351.9927 c 2.7258,0 4.9357,-2.2099 4.9357,-4.9357 0,-2.7258 -2.2099,-4.9357 -4.9357,-4.9357 -2.7258,0 -4.9357,2.2099 -4.9357,4.9357 0,2.7258 2.2099,4.9357 4.9357,4.9357 z"
               inkscape:connector-curvature="0" />
            <path
               id="path4816"
               style="fill:#339fad;fill-opacity:1;fill-rule:evenodd;stroke:#339fad;stroke-width:0.56690001;stroke-linecap:butt;stroke-linejoin:miter;stroke-miterlimit:22.92558479;stroke-dasharray:none;stroke-opacity:1"
               d="m 52.7409,357.6762 c -6.0478,0 -10.9503,4.9025 -10.9503,10.9502 0,6.0477 4.9025,10.9502 10.9503,10.9502 6.0477,0 10.9502,-4.9025 10.9502,-10.9502 0,-6.0477 -4.9025,-10.9502 -10.9502,-10.9502 z"
               inkscape:connector-curvature="0" />
            <path
               id="path4818"
               style="fill:#339fad;fill-opacity:1;fill-rule:evenodd;stroke:#339fad;stroke-width:0.56690001;stroke-linecap:butt;stroke-linejoin:miter;stroke-miterlimit:22.92558479;stroke-dasharray:none;stroke-opacity:1"
               d="m 72.288,355.1454 c 3.3503,0 6.0661,-2.7159 6.0661,-6.0662 0,-3.3502 -2.7158,-6.0661 -6.0661,-6.0661 -3.3503,0 -6.0661,2.7159 -6.0661,6.0661 0,3.3503 2.7158,6.0662 6.0661,6.0662 z"
               inkscape:connector-curvature="0" />
            <path
               id="path4820"
               style="fill:#339fad;fill-opacity:1;fill-rule:evenodd;stroke:#339fad;stroke-width:0.56690001;stroke-linecap:butt;stroke-linejoin:miter;stroke-miterlimit:22.92558479;stroke-dasharray:none;stroke-opacity:1"
               d="m 36.5641,332.7089 c -3.8293,0 -6.9338,3.1045 -6.9338,6.9338 0,3.8293 3.1045,6.9338 6.9338,6.9338 3.8293,0 6.9338,-3.1045 6.9338,-6.9338 0,-3.8293 -3.1045,-6.9338 -6.9338,-6.9338 z"
               inkscape:connector-curvature="0" />
            <path
               id="path4822"
               style="fill:#339fad;fill-opacity:1;fill-rule:evenodd;stroke:#339fad;stroke-width:0.56690001;stroke-linecap:butt;stroke-linejoin:miter;stroke-miterlimit:22.92558479;stroke-dasharray:none;stroke-opacity:1"
               d="m 34.5419,295.1609 c -5.9536,0 -10.7802,4.8265 -10.7802,10.7801 0,5.9536 4.8266,10.7802 10.7802,10.7802 5.9536,0 10.7801,-4.8266 10.7801,-10.7802 0,-5.9536 -4.8265,-10.7801 -10.7801,-10.7801 z"
               inkscape:connector-curvature="0" />
            <path
               id="path4824"
               style="fill:#339fad;fill-opacity:1;fill-rule:evenodd;stroke:#339fad;stroke-width:0.56690001;stroke-linecap:butt;stroke-linejoin:miter;stroke-miterlimit:22.92558479;stroke-dasharray:none;stroke-opacity:1"
               d="m 41.9564,264.346 c -6.5928,0 -11.9375,5.3447 -11.9375,11.9376 0,6.5928 5.3447,11.9375 11.9375,11.9375 6.5929,0 11.9376,-5.3447 11.9376,-11.9375 0,-6.5929 -5.3447,-11.9376 -11.9376,-11.9376 z"
               inkscape:connector-curvature="0" />
            <path
               id="path4826"
               style="fill:#339fad;fill-opacity:1;fill-rule:evenodd;stroke:#339fad;stroke-width:0.56690001;stroke-linecap:butt;stroke-linejoin:miter;stroke-miterlimit:22.92558479;stroke-dasharray:none;stroke-opacity:1"
               d="m 52.0668,237.096 c -5.2631,0 -9.5298,4.2667 -9.5298,9.5298 0,5.2631 4.2667,9.5298 9.5298,9.5298 5.2631,0 9.5298,-4.2667 9.5298,-9.5298 0,-5.2631 -4.2667,-9.5298 -9.5298,-9.5298 z"
               inkscape:connector-curvature="0" />
            <path
               id="path4828"
               style="fill:#339fad;fill-opacity:1;fill-rule:evenodd;stroke:#339fad;stroke-width:0.56690001;stroke-linecap:butt;stroke-linejoin:miter;stroke-miterlimit:22.92558479;stroke-dasharray:none;stroke-opacity:1"
               d="m 75.6584,269.2142 c 3.9132,0 7.0855,-3.1722 7.0855,-7.0854 0,-3.9133 -3.1723,-7.0855 -7.0855,-7.0855 -3.9132,0 -7.0855,3.1722 -7.0855,7.0855 0,3.9132 3.1723,7.0854 7.0855,7.0854 z"
               inkscape:connector-curvature="0" />
            <path
               id="path4830"
               style="fill:#339fad;fill-opacity:1;fill-rule:evenodd;stroke:#339fad;stroke-width:0.56690001;stroke-linecap:butt;stroke-linejoin:miter;stroke-miterlimit:22.92558479;stroke-dasharray:none;stroke-opacity:1"
               d="m 99.2497,233.4237 c -5.8022,0 -10.506,4.7038 -10.506,10.5061 0,5.8022 4.7038,10.506 10.506,10.506 5.8023,0 10.5061,-4.7038 10.5061,-10.506 0,-5.8023 -4.7038,-10.5061 -10.5061,-10.5061 z"
               inkscape:connector-curvature="0" />
            <path
               id="path4832"
               style="fill:#339fad;fill-opacity:1;fill-rule:evenodd;stroke:#339fad;stroke-width:0.56690001;stroke-linecap:butt;stroke-linejoin:miter;stroke-miterlimit:22.92558479;stroke-dasharray:none;stroke-opacity:1"
               d="m 75.6584,213.5472 c -5.9842,0 -10.8354,4.8512 -10.8354,10.8354 0,5.9842 4.8512,10.8354 10.8354,10.8354 5.9842,0 10.8354,-4.8512 10.8354,-10.8354 0,-5.9842 -4.8512,-10.8354 -10.8354,-10.8354 z"
               inkscape:connector-curvature="0" />
            <path
               id="path4834"
               style="fill:#339fad;fill-opacity:1;fill-rule:evenodd;stroke:#339fad;stroke-width:0.56690001;stroke-linecap:butt;stroke-linejoin:miter;stroke-miterlimit:22.92558479;stroke-dasharray:none;stroke-opacity:1"
               d="m 132.9514,240.6039 c -6.6762,0 -12.0883,5.4122 -12.0883,12.0883 0,6.6762 5.4121,12.0884 12.0883,12.0884 6.6762,0 12.0883,-5.4122 12.0883,-12.0884 0,-6.6761 -5.4121,-12.0883 -12.0883,-12.0883 z"
               inkscape:connector-curvature="0" />
            <path
               id="path4836"
               style="fill:#339fad;fill-opacity:1;fill-rule:evenodd;stroke:#339fad;stroke-width:0.56690001;stroke-linecap:butt;stroke-linejoin:miter;stroke-miterlimit:22.92558479;stroke-dasharray:none;stroke-opacity:1"
               d="m 120.8188,218.9577 c -3.3684,0 -6.099,2.7306 -6.099,6.099 0,3.3684 2.7306,6.099 6.099,6.099 3.3684,0 6.0991,-2.7306 6.0991,-6.099 0,-3.3684 -2.7307,-6.099 -6.0991,-6.099 z"
               inkscape:connector-curvature="0" />
            <path
               id="path4838"
               style="fill:#339fad;fill-opacity:1;fill-rule:evenodd;stroke:#339fad;stroke-width:0.56690001;stroke-linecap:butt;stroke-linejoin:miter;stroke-miterlimit:22.92558479;stroke-dasharray:none;stroke-opacity:1"
               d="m 102.6198,201.4651 c -3.7227,0 -6.7405,3.0177 -6.7405,6.7405 0,3.7227 3.0178,6.7405 6.7405,6.7405 3.7228,0 6.7405,-3.0178 6.7405,-6.7405 0,-3.7228 -3.0177,-6.7405 -6.7405,-6.7405 z"
               inkscape:connector-curvature="0" />
            <path
               id="path4840"
               style="fill:#339fad;fill-opacity:1;fill-rule:evenodd;stroke:#339fad;stroke-width:0.56690001;stroke-linecap:butt;stroke-linejoin:miter;stroke-miterlimit:22.92558479;stroke-dasharray:none;stroke-opacity:1"
               d="m 129.5813,192.0288 c -5.584,0 -10.1106,4.5267 -10.1106,10.1106 0,5.584 4.5266,10.1106 10.1106,10.1106 5.584,0 10.1106,-4.5266 10.1106,-10.1106 0,-5.5839 -4.5266,-10.1106 -10.1106,-10.1106 z"
               inkscape:connector-curvature="0" />
            <path
               id="path4842"
               style="fill:#339fad;fill-opacity:1;fill-rule:evenodd;stroke:#339fad;stroke-width:0.56690001;stroke-linecap:butt;stroke-linejoin:miter;stroke-miterlimit:22.92558479;stroke-dasharray:none;stroke-opacity:1"
               d="m 153.8464,216.7078 c -4.6108,0 -8.3489,3.7381 -8.3489,8.3489 0,4.6108 3.7381,8.3489 8.3489,8.3489 4.6109,0 8.3489,-3.7381 8.3489,-8.3489 0,-4.6108 -3.738,-8.3489 -8.3489,-8.3489 z"
               inkscape:connector-curvature="0" />
            <path
               id="path4844"
               style="fill:#339fad;fill-opacity:1;fill-rule:evenodd;stroke:#339fad;stroke-width:0.56690001;stroke-linecap:butt;stroke-linejoin:miter;stroke-miterlimit:22.92558479;stroke-dasharray:none;stroke-opacity:1"
               d="m 162.6092,192.4982 c -5.3246,0 -9.6412,4.3166 -9.6412,9.6412 0,5.3246 4.3166,9.6412 9.6412,9.6412 5.3246,0 9.6412,-4.3166 9.6412,-9.6412 0,-5.3246 -4.3166,-9.6412 -9.6412,-9.6412 z"
               inkscape:connector-curvature="0" />
            <path
               id="path4846"
               style="fill:#339fad;fill-opacity:1;fill-rule:evenodd;stroke:#339fad;stroke-width:0.56690001;stroke-linecap:butt;stroke-linejoin:miter;stroke-miterlimit:22.92558479;stroke-dasharray:none;stroke-opacity:1"
               d="m 172.7198,236.2649 c -6.8389,0 -12.3829,5.544 -12.3829,12.3828 0,6.8389 5.544,12.3829 12.3829,12.3829 6.8388,0 12.3828,-5.544 12.3828,-12.3829 0,-6.8388 -5.544,-12.3828 -12.3828,-12.3828 z"
               inkscape:connector-curvature="0" />
            <path
               id="path4848"
               style="fill:#339fad;fill-opacity:1;fill-rule:evenodd;stroke:#339fad;stroke-width:0.56690001;stroke-linecap:butt;stroke-linejoin:miter;stroke-miterlimit:22.92558479;stroke-dasharray:none;stroke-opacity:1"
               d="m 194.2889,206.6556 c -5.6954,0 -10.3125,4.6171 -10.3125,10.3124 0,5.6954 4.6171,10.3125 10.3125,10.3125 5.6954,0 10.3124,-4.6171 10.3124,-10.3125 0,-5.6953 -4.617,-10.3124 -10.3124,-10.3124 z"
               inkscape:connector-curvature="0" />
            <path
               id="path4850"
               style="fill:#339fad;fill-opacity:1;fill-rule:evenodd;stroke:#339fad;stroke-width:0.56690001;stroke-linecap:butt;stroke-linejoin:miter;stroke-miterlimit:22.92558479;stroke-dasharray:none;stroke-opacity:1"
               d="m 220.5765,226.6693 c -6.5545,0 -11.8681,5.3136 -11.8681,11.8681 0,6.5546 5.3136,11.8681 11.8681,11.8681 6.5546,0 11.8681,-5.3135 11.8681,-11.8681 0,-6.5545 -5.3135,-11.8681 -11.8681,-11.8681 z"
               inkscape:connector-curvature="0" />
            <path
               id="path4852"
               style="fill:#339fad;fill-opacity:1;fill-rule:evenodd;stroke:#339fad;stroke-width:0.56690001;stroke-linecap:butt;stroke-linejoin:miter;stroke-miterlimit:22.92558479;stroke-dasharray:none;stroke-opacity:1"
               d="m 203.0516,255.0036 c -3.5628,0 -6.4511,2.8882 -6.4511,6.4511 0,3.5628 2.8883,6.4511 6.4511,6.4511 3.5629,0 6.4511,-2.8883 6.4511,-6.4511 0,-3.5629 -2.8882,-6.4511 -6.4511,-6.4511 z"
               inkscape:connector-curvature="0" />
            <path
               id="path4854"
               style="fill:#339fad;fill-opacity:1;fill-rule:evenodd;stroke:#339fad;stroke-width:0.56690001;stroke-linecap:butt;stroke-linejoin:miter;stroke-miterlimit:22.92558479;stroke-dasharray:none;stroke-opacity:1"
               d="m 244.1679,264.8242 c -2.9784,0 -5.3927,2.4143 -5.3927,5.3927 0,2.9783 2.4143,5.3926 5.3927,5.3926 2.9783,0 5.3926,-2.4143 5.3926,-5.3926 0,-2.9784 -2.4143,-5.3927 -5.3926,-5.3927 z"
               inkscape:connector-curvature="0" />
            <path
               id="path4856"
               style="fill:#339fad;fill-opacity:1;fill-rule:evenodd;stroke:#339fad;stroke-width:0.56690001;stroke-linecap:butt;stroke-linejoin:miter;stroke-miterlimit:22.92558479;stroke-dasharray:none;stroke-opacity:1"
               d="m 52.7409,333.5766 c 2.9783,0 5.3926,-2.4143 5.3926,-5.3927 0,-2.9783 -2.4143,-5.3926 -5.3926,-5.3926 -2.9784,0 -5.3927,2.4143 -5.3927,5.3926 0,2.9784 2.4143,5.3927 5.3927,5.3927 z"
               inkscape:connector-curvature="0" />
            <path
               id="path4858"
               style="fill:#f04e4d;fill-opacity:1;fill-rule:evenodd;stroke:#f04e4d;stroke-width:0.56690001;stroke-linecap:butt;stroke-linejoin:miter;stroke-miterlimit:22.92558479;stroke-dasharray:none;stroke-opacity:1"
               d="m 249.5599,322.8678 c 7.8594,0 14.2308,-6.3714 14.2308,-14.2307 0,-7.8594 -6.3714,-14.2308 -14.2308,-14.2308 -7.8593,0 -14.2307,6.3714 -14.2307,14.2308 0,7.8593 6.3714,14.2307 14.2307,14.2307 z"
               inkscape:connector-curvature="0" />
            <path
               id="path4860"
               style="fill:#339fad;fill-opacity:1;fill-rule:evenodd;stroke:#339fad;stroke-width:0.56690001;stroke-linecap:butt;stroke-linejoin:miter;stroke-miterlimit:22.92558479;stroke-dasharray:none;stroke-opacity:1"
               d="m 139.0178,361.2424 c 4.8563,0 8.7931,-3.9367 8.7931,-8.793 0,-4.8564 -3.9368,-8.7931 -8.7931,-8.7931 -4.8563,0 -8.793,3.9367 -8.793,8.7931 0,4.8563 3.9367,8.793 8.793,8.793 z"
               inkscape:connector-curvature="0" />
          </g>
          <g
             id="g4862">
            <path
               id="path4864"
               style="fill:#329fae;fill-opacity:1;fill-rule:nonzero;stroke:none"
               d="m 105.91,285.6733 c 0,-0.7863 -0.0241,-1.4561 -0.0714,-2.0058 -0.0465,-0.5505 -0.1179,-1.023 -0.212,-1.4156 -0.0942,-0.394 -0.2209,-0.731 -0.3773,-1.0142 -0.1576,-0.2835 -0.4091,-0.6061 -0.7549,-0.9678 -0.347,-0.3625 -1.0151,-0.826 -2.0058,-1.3918 -0.991,-0.5666 -2.2022,-1.1092 -3.6332,-1.6288 -1.4317,-0.5184 -3.0673,-0.9507 -4.9084,-1.2971 -1.84,-0.3461 -3.8299,-0.519 -5.9695,-0.519 -4.1837,0 -7.9583,0.6446 -11.3241,1.9355 -3.3673,1.2886 -6.2295,3.2147 -8.5885,5.7798 -2.3604,2.5634 -4.17,5.7643 -5.4266,9.6026 -1.2589,3.8373 -1.8876,8.3047 -1.8876,13.4014 0,5.1905 0.6919,9.7988 2.0758,13.826 1.3847,4.0266 3.3185,7.4086 5.8042,10.1458 2.4852,2.7374 5.4661,4.8132 8.9428,6.2294 3.4753,1.4145 7.3054,2.1228 11.4902,2.1228 1.698,0 3.3333,-0.1417 4.9074,-0.4246 1.5726,-0.2837 3.0276,-0.6528 4.365,-1.1095 1.3363,-0.4555 2.5399,-0.983 3.6097,-1.5803 1.0686,-0.5975 1.817,-1.1098 2.241,-1.533 0.4252,-0.4246 0.7158,-0.7798 0.8737,-1.0624 0.157,-0.2826 0.2829,-0.646 0.3775,-1.0859 0.0944,-0.4397 0.1647,-0.9593 0.2124,-1.5565 0.0465,-0.599 0.0703,-1.3377 0.0703,-2.2182 0,-0.9433 -0.0318,-1.7461 -0.0941,-2.4066 -0.0635,-0.6596 -0.1732,-1.1951 -0.3303,-1.6041 -0.1573,-0.4088 -0.3469,-0.7075 -0.5666,-0.8966 -0.2203,-0.1882 -0.4717,-0.2835 -0.7546,-0.2835 -0.4717,0 -1.0701,0.2756 -1.7935,0.8261 -0.7237,0.5499 -1.6591,1.1636 -2.808,1.8399 -1.1486,0.6761 -2.5169,1.2895 -4.1048,1.8411 -1.5886,0.5499 -3.4847,0.8258 -5.6861,0.8258 -2.4224,0 -4.5861,-0.4958 -6.4885,-1.4868 -1.9034,-0.9904 -3.5243,-2.4063 -4.8608,-4.2474 -1.3368,-1.84 -2.3511,-4.0658 -3.0439,-6.6765 -0.6922,-2.6113 -1.0374,-5.5533 -1.0374,-8.8242 0,-3.587 0.369,-6.6929 1.1089,-9.3189 0.7393,-2.6278 1.7929,-4.7906 3.1612,-6.4894 1.3685,-1.6988 3.02,-2.9653 4.9555,-3.7981 1.9344,-0.8343 4.1119,-1.2512 6.535,-1.2512 2.2022,0 4.1057,0.2602 5.7101,0.7792 1.6038,0.5182 2.9795,1.0928 4.1284,1.7218 1.1486,0.6287 2.0919,1.1956 2.8315,1.6996 0.739,0.502 1.3133,0.7549 1.7223,0.7549 0.3144,0 0.5667,-0.0635 0.7555,-0.1894 0.1888,-0.1264 0.3452,-0.3773 0.4719,-0.7546 0.125,-0.3778 0.2197,-0.9045 0.2832,-1.5806 0.0618,-0.6766 0.0944,-1.5811 0.0944,-2.7133"
               inkscape:connector-curvature="0" />
            <path
               id="path4866"
               style="fill:#329fae;fill-opacity:1;fill-rule:nonzero;stroke:none"
               d="m 158.1962,278.028 c 0,-0.3461 -0.0638,-0.6369 -0.1894,-0.8728 -0.1261,-0.2361 -0.4246,-0.4323 -0.8963,-0.5899 -0.4719,-0.1562 -1.1639,-0.2667 -2.0758,-0.3302 -0.9133,-0.0618 -2.156,-0.0947 -3.7284,-0.0947 -1.3215,0 -2.3749,0.0329 -3.1615,0.0947 -0.7863,0.0635 -1.4085,0.1811 -1.8635,0.3543 -0.4566,0.1718 -0.7789,0.3929 -0.968,0.6599 -0.1882,0.2676 -0.3461,0.5905 -0.4717,0.9678 l -5.474,13.6369 c -0.6605,1.5417 -1.3059,2.91 -1.9341,4.1065 -0.6304,1.1948 -1.3303,2.1932 -2.1001,2.9957 -0.7714,0.8028 -1.6597,1.4074 -2.6669,1.817 -1.0068,0.4085 -2.1708,0.6131 -3.4917,0.6131 h -3.8696 v -23.2631 c 0,-0.3155 -0.1015,-0.5983 -0.3064,-0.8501 -0.2052,-0.2517 -0.5425,-0.4563 -1.0145,-0.6134 -0.4717,-0.1579 -1.1021,-0.2832 -1.8873,-0.3776 -0.7875,-0.0941 -1.7929,-0.1417 -3.0201,-0.1417 -1.1959,0 -2.1943,0.0476 -2.9967,0.1417 -0.8014,0.0944 -1.4389,0.2197 -1.9117,0.3776 -0.4717,0.1571 -0.8017,0.3617 -0.9902,0.6134 -0.1888,0.2518 -0.2834,0.5346 -0.2834,0.8501 v 55.4457 c 0,1.3839 0.3543,2.3837 1.0621,2.9962 0.7073,0.614 1.5809,0.9204 2.6181,0.9204 h 15.808 c 1.6055,0 2.9262,-0.0326 3.9645,-0.0946 1.038,-0.063 1.982,-0.1412 2.8318,-0.2353 2.4531,-0.347 4.6624,-0.9442 6.6291,-1.7935 1.9661,-0.8492 3.634,-1.9576 5.0023,-3.3262 1.3683,-1.3688 2.4143,-2.9891 3.1377,-4.8608 0.7239,-1.8726 1.0862,-4.0193 1.0862,-6.4417 0,-2.0447 -0.2594,-3.9087 -0.7787,-5.5911 -0.5196,-1.6838 -1.2826,-3.1859 -2.2887,-4.5068 -1.008,-1.3212 -2.2501,-2.4701 -3.7284,-3.4447 -1.4785,-0.9759 -3.162,-1.7623 -5.049,-2.3592 0.9121,-0.4414 1.7696,-0.9754 2.5715,-1.6053 0.802,-0.629 1.558,-1.3915 2.2655,-2.2881 0.7078,-0.8972 1.3762,-1.9191 2.0052,-3.0665 0.6288,-1.1498 1.243,-2.4472 1.8411,-3.8943 l 5.1426,-12.0331 c 0.472,-1.1945 0.7864,-2.0687 0.9437,-2.6186 0.1579,-0.5505 0.2367,-0.9828 0.2367,-1.2977 z m -15.9973,41.4317 c 0,2.0129 -0.4561,3.7114 -1.3683,5.0965 -0.9125,1.3835 -2.4066,2.3589 -4.483,2.9256 -0.6296,0.157 -1.3448,0.2826 -2.1475,0.3773 -0.8022,0.0947 -1.9109,0.142 -3.3265,0.142 h -5.5684 v -17.3185 h 6.3233 c 1.7617,0 3.3035,0.2123 4.6247,0.6363 1.3215,0.4255 2.4222,1.0228 3.3038,1.7938 0.8801,0.7702 1.54,1.6906 1.9811,2.7604 0.4405,1.0695 0.6608,2.2649 0.6608,3.5866"
               inkscape:connector-curvature="0" />
            <path
               id="path4868"
               style="fill:#329fae;fill-opacity:1;fill-rule:nonzero;stroke:none"
               d="m 175.8951,278.1232 c 0,-0.3155 -0.1028,-0.5983 -0.3061,-0.8501 -0.2047,-0.2517 -0.5417,-0.4563 -1.0148,-0.6134 -0.472,-0.1579 -1.1015,-0.2832 -1.887,-0.3776 -0.7863,-0.0941 -1.7929,-0.1417 -3.0212,-0.1417 -1.1956,0 -2.1926,0.0476 -2.9945,0.1417 -0.8036,0.0944 -1.4397,0.2197 -1.912,0.3776 -0.4719,0.1571 -0.8101,0.3617 -1.0145,0.6134 -0.2049,0.2518 -0.3067,0.5346 -0.3067,0.8501 v 57.6635 c 0,0.313 0.1018,0.5973 0.3067,0.8493 0.2044,0.252 0.5496,0.4567 1.0383,0.6137 0.4873,0.1576 1.1237,0.2832 1.9117,0.3773 0.7855,0.095 1.7754,0.1412 2.971,0.1412 1.2283,0 2.2349,-0.0462 3.0212,-0.1412 0.7855,-0.0941 1.415,-0.2197 1.887,-0.3773 0.4731,-0.157 0.8101,-0.3617 1.0148,-0.6137 0.2033,-0.252 0.3061,-0.5363 0.3061,-0.8493 z"
               inkscape:connector-curvature="0" />
            <path
               id="path4870"
               style="fill:#329fae;fill-opacity:1;fill-rule:nonzero;stroke:none"
               d="m 227.5705,285.6733 c 0,-0.7863 -0.0239,-1.4561 -0.0712,-2.0058 -0.0473,-0.5505 -0.1182,-1.023 -0.2115,-1.4156 -0.0946,-0.394 -0.2213,-0.731 -0.3772,-1.0142 -0.1588,-0.2835 -0.4094,-0.6061 -0.7563,-0.9678 -0.3464,-0.3625 -1.0151,-0.826 -2.0047,-1.3918 -0.9916,-0.5666 -2.2028,-1.1092 -3.6337,-1.6288 -1.4315,-0.5184 -3.0674,-0.9507 -4.9082,-1.2971 -1.8403,-0.3461 -3.8302,-0.519 -5.9701,-0.519 -4.1822,0 -7.9585,0.6446 -11.3235,1.9355 -3.3679,1.2886 -6.2294,3.2147 -8.589,5.7798 -2.3587,2.5634 -4.1686,5.7643 -5.4258,9.6026 -1.2586,3.8373 -1.8882,8.3047 -1.8882,13.4014 0,5.1905 0.6923,9.7988 2.0759,13.826 1.3858,4.0266 3.3196,7.4086 5.8047,10.1458 2.4852,2.7374 5.4664,4.8132 8.9428,6.2294 3.475,1.4145 7.3054,2.1228 11.4905,2.1228 1.6974,0 3.3333,-0.1417 4.9065,-0.4246 1.5735,-0.2837 3.0282,-0.6528 4.3662,-1.1095 1.3351,-0.4555 2.5396,-0.983 3.6088,-1.5803 1.0678,-0.5975 1.817,-1.1098 2.2416,-1.533 0.4247,-0.4246 0.7155,-0.7798 0.8731,-1.0624 0.1573,-0.2826 0.2826,-0.646 0.3773,-1.0859 0.0947,-0.4397 0.1641,-0.9593 0.2115,-1.5565 0.0473,-0.599 0.0711,-1.3377 0.0711,-2.2182 0,-0.9433 -0.0306,-1.7461 -0.0933,-2.4066 -0.0637,-0.6596 -0.174,-1.1951 -0.3299,-1.6041 -0.1588,-0.4088 -0.3481,-0.7075 -0.5684,-0.8966 -0.2196,-0.1882 -0.4702,-0.2835 -0.7545,-0.2835 -0.4703,0 -1.0693,0.2756 -1.793,0.8261 -0.7242,0.5499 -1.6582,1.1636 -2.8068,1.8399 -1.1489,0.6761 -2.5178,1.2895 -4.1063,1.8411 -1.5885,0.5499 -3.4846,0.8258 -5.6857,0.8258 -2.4231,0 -4.5865,-0.4958 -6.4885,-1.4868 -1.9029,-0.9904 -3.5241,-2.4063 -4.8603,-4.2474 -1.338,-1.84 -2.3519,-4.0658 -3.0436,-6.6765 -0.6933,-2.6113 -1.0372,-5.5533 -1.0372,-8.8242 0,-3.587 0.3691,-6.6929 1.1081,-9.3189 0.7393,-2.6278 1.7935,-4.7906 3.162,-6.4894 1.3672,-1.6988 3.0198,-2.9653 4.9553,-3.7981 1.9338,-0.8343 4.1111,-1.2512 6.5341,-1.2512 2.2026,0 4.1057,0.2602 5.7096,0.7792 1.6038,0.5182 2.9809,1.0928 4.1298,1.7218 1.1486,0.6287 2.0908,1.1956 2.8318,1.6996 0.7378,0.502 1.313,0.7549 1.7206,0.7549 0.3161,0 0.5667,-0.0635 0.7563,-0.1894 0.1894,-0.1264 0.3453,-0.3773 0.472,-0.7546 0.125,-0.3778 0.2197,-0.9045 0.284,-1.5806 0.0612,-0.6766 0.0933,-1.5811 0.0933,-2.7133"
               inkscape:connector-curvature="0" />
          </g>
        </g>
        <g
           id="g4872">
          <path
             id="path4874"
             style="fill:none;stroke:#808285;stroke-width:2.83459997;stroke-linecap:butt;stroke-linejoin:miter;stroke-miterlimit:22.92558479;stroke-dasharray:none;stroke-opacity:1"
             d="M 279.1193,356.1219 V 252.1222"
             inkscape:connector-curvature="0" />
        </g>
      </g>
    </g>
    <text
       xml:space="preserve"
       style="font-style:normal;font-variant:normal;font-weight:bold;font-stretch:normal;font-size:8.46666622px;line-height:22.75416565px;font-family:Calibri;-inkscape-font-specification:'Calibri Bold';font-variant-ligatures:normal;font-variant-caps:normal;font-variant-numeric:normal;font-feature-settings:normal;text-align:start;letter-spacing:0px;word-spacing:0px;writing-mode:lr-tb;text-anchor:start;fill:#339fad;fill-opacity:1;stroke:none;stroke-width:0.26458332px;stroke-linecap:butt;stroke-linejoin:miter;stroke-opacity:1;"
       x="231.10527"
       y="162.61436"
       id="text8868"><tspan
         sodipodi:role="line"
         id="tspan8866"
         x="231.10527"
         y="162.61436"
         style="font-size:25.39999962px;stroke-width:0.26458332px;fill:#339fad;fill-opacity:1;">Title</tspan></text>
    <text
       id="text8872"
       y="185.04344"
       x="224.15996"
       style="font-style:normal;font-variant:normal;font-weight:bold;font-stretch:normal;font-size:8.46666622px;line-height:22.75416565px;font-family:Calibri;-inkscape-font-specification:'Calibri Bold';font-variant-ligatures:normal;font-variant-caps:normal;font-variant-numeric:normal;font-feature-settings:normal;text-align:start;letter-spacing:0px;word-spacing:0px;writing-mode:lr-tb;text-anchor:start;fill:#339fad;fill-opacity:1;stroke:none;stroke-width:0.26458332px;stroke-linecap:butt;stroke-linejoin:miter;stroke-opacity:1;"
       xml:space="preserve"><tspan
         style="font-size:16.93333244px;stroke-width:0.26458332px;fill:#339fad;fill-opacity:1;"
         y="185.04344"
         x="224.15996"
         id="tspan8870"
         sodipodi:role="line">Sub-title</tspan></text>
  </g>
</svg>
